<svg width="35" height="35" viewBox="0 0 35 35" fill="none" xmlns="http://www.w3.org/2000/svg">
<mask id="path-1-inside-1_1_36" fill="white">
<path d="M25.3614 7.00181C25.1282 7.01207 24.9006 7.08387 24.6973 7.17413C24.4958 7.26234 23.3317 7.80802 21.6135 8.61628C19.8952 9.42454 17.6621 10.4769 15.4477 11.519C11.0187 13.6053 6.66815 15.6568 6.66815 15.6568L6.69987 15.6444C6.69987 15.6444 6.43682 15.7409 6.17004 15.944C6.03758 16.0465 5.89393 16.1778 5.7764 16.3707C5.66073 16.5635 5.57491 16.8343 5.60663 17.1215C5.72043 18.1328 6.67188 18.42 6.67188 18.42L6.67748 18.4221L10.9292 20.0222C11.0374 20.4202 12.2183 24.7548 12.4776 25.6739C12.6213 26.1806 12.7556 26.4739 12.8955 26.6729C12.9664 26.7734 13.0392 26.8493 13.1213 26.9068C13.153 26.9293 13.1866 26.9457 13.2201 26.9621C13.2201 26.9621 13.222 26.9601 13.222 26.9621C13.2257 26.9621 13.2295 26.9642 13.2351 26.9662L13.2239 26.9621C13.2313 26.9662 13.2388 26.9724 13.2463 26.9745C13.2612 26.9806 13.2705 26.9806 13.291 26.9847C13.7779 27.1714 14.1809 26.8247 14.1809 26.8247L14.1977 26.8103L16.8095 24.1476L21.0482 27.7807L21.1004 27.8073C21.8429 28.1704 22.5127 27.9673 22.8858 27.635C23.257 27.3027 23.4026 26.8739 23.4026 26.8739L23.4194 26.8288L26.533 8.97938C26.6133 8.57935 26.6245 8.23471 26.5498 7.9229C26.4733 7.60903 26.2905 7.33824 26.0629 7.18849C25.8334 7.03873 25.5928 6.9895 25.3614 7.00181ZM25.3857 8.06855C25.4808 8.06445 25.5499 8.0747 25.5723 8.08906C25.5946 8.10547 25.604 8.10342 25.6264 8.19163C25.6469 8.27779 25.6581 8.46447 25.6002 8.75372L25.5984 8.75988L22.5015 26.5067C22.494 26.5252 22.4287 26.6893 22.2832 26.8206C22.1321 26.956 21.9642 27.0606 21.522 26.8555L16.886 22.8798L16.7554 22.767L16.7536 22.7711L15.3674 21.6264L23.1563 11.5498C23.2794 11.3919 23.3056 11.1703 23.2235 10.9836C23.1432 10.7949 22.9697 10.678 22.7813 10.6841C22.6899 10.6862 22.6022 10.7169 22.5276 10.7723L11.2557 19.0354L6.99836 17.4312C6.99836 17.4312 6.57487 17.1728 6.55435 16.9922C6.55249 16.984 6.54875 16.9922 6.57114 16.9553C6.59166 16.9204 6.64763 16.8589 6.71666 16.8056C6.85471 16.7009 7.01329 16.6353 7.01329 16.6353L7.03008 16.6291L7.045 16.623C7.045 16.623 11.3974 14.5695 15.8245 12.4832C18.039 11.4411 20.2721 10.3908 21.9903 9.5825C23.7067 8.77424 24.9473 8.19369 25.0536 8.1465C25.173 8.09522 25.2906 8.07265 25.3857 8.06855ZM20.2199 13.7264L14.3134 21.3679L14.3096 21.372C14.3003 21.3843 14.291 21.3966 14.2835 21.4089C14.2742 21.4233 14.2649 21.4397 14.2574 21.4541C14.2238 21.5156 14.2033 21.5854 14.1958 21.6551C14.194 21.6572 14.194 21.6592 14.1958 21.6592L13.4253 25.4646C13.4123 25.4236 13.403 25.4092 13.3899 25.36C13.1455 24.4963 12.0317 20.4079 11.8769 19.8437L20.2199 13.7264ZM14.9794 22.6213L16.0409 23.4973L14.4813 25.0871L14.9794 22.6213Z"/>
</mask>
<path d="M25.3614 7.00181L25.4054 8.00089L25.4146 8.0004L25.3614 7.00181ZM24.6973 7.17413L25.0984 8.09019L25.103 8.08813L24.6973 7.17413ZM15.4477 11.519L15.0219 10.6142L15.0215 10.6144L15.4477 11.519ZM6.66815 15.6568L6.24166 14.7523L7.02995 16.589L6.66815 15.6568ZM6.69987 15.6444L7.06167 16.5767L6.35572 14.7055L6.69987 15.6444ZM6.17004 15.944L5.5643 15.1483L5.55778 15.1533L6.17004 15.944ZM5.7764 16.3707L4.92248 15.8502L4.91884 15.8563L5.7764 16.3707ZM5.60663 17.1215L4.61267 17.2312L4.6129 17.2333L5.60663 17.1215ZM6.67188 18.42L7.01605 17.4811L6.98872 17.4711L6.96086 17.4627L6.67188 18.42ZM6.67748 18.4221L7.02972 17.4861L7.02165 17.4832L6.67748 18.4221ZM10.9292 20.0222L11.8941 19.7598L11.76 19.2664L11.2814 19.0863L10.9292 20.0222ZM12.4776 25.6739L11.5152 25.9454L11.5155 25.9466L12.4776 25.6739ZM12.8955 26.6729L12.0775 27.2481L12.0783 27.2492L12.8955 26.6729ZM13.1213 26.9068L13.701 26.0919L13.6946 26.0874L13.1213 26.9068ZM13.2201 26.9621L12.781 27.8606L13.4551 28.19L13.9599 27.635L13.2201 26.9621ZM13.222 26.9621H12.222V27.9621H13.222V26.9621ZM13.2351 26.9662L12.8909 27.9052L13.5792 26.0273L13.2351 26.9662ZM13.2239 26.9621L13.568 26.0232L12.7421 27.8384L13.2239 26.9621ZM13.2463 26.9745L13.6275 26.05L13.5706 26.0265L13.5113 26.0102L13.2463 26.9745ZM13.291 26.9847L13.649 26.051L13.57 26.0207L13.4871 26.0041L13.291 26.9847ZM14.1809 26.8247L13.531 26.0647L13.5287 26.0666L14.1809 26.8247ZM14.1977 26.8103L14.8477 27.5703L14.8809 27.5418L14.9116 27.5106L14.1977 26.8103ZM16.8095 24.1476L17.4603 23.3883L16.7504 22.7798L16.0956 23.4473L16.8095 24.1476ZM21.0482 27.7807L20.3974 28.5399L20.4876 28.6173L20.5935 28.6713L21.0482 27.7807ZM21.1004 27.8073L20.6457 28.698L20.6534 28.7019L20.6611 28.7057L21.1004 27.8073ZM22.8858 27.635L23.5509 28.3818L23.5528 28.3801L22.8858 27.635ZM23.4026 26.8739L22.4653 26.5252L22.4603 26.5388L22.4556 26.5525L23.4026 26.8739ZM23.4194 26.8288L24.3566 27.1775L24.3887 27.0913L24.4045 27.0006L23.4194 26.8288ZM26.533 8.97938L25.5526 8.78276L25.5501 8.79512L25.5479 8.80753L26.533 8.97938ZM26.5498 7.9229L27.5224 7.69015L27.5214 7.68613L26.5498 7.9229ZM26.0629 7.18849L26.6126 6.35309L26.6094 6.35105L26.0629 7.18849ZM25.3857 8.06855L25.3426 7.06948L25.3426 7.06948L25.3857 8.06855ZM25.5723 8.08906L26.1635 7.28255L26.1384 7.26415L26.1122 7.24735L25.5723 8.08906ZM25.6264 8.19163L26.5991 7.95994L26.5974 7.95278L26.5956 7.94564L25.6264 8.19163ZM25.6002 8.75372L26.5572 9.0438L26.5713 8.99737L26.5808 8.94979L25.6002 8.75372ZM25.5984 8.75988L24.6414 8.4698L24.6237 8.52803L24.6133 8.58797L25.5984 8.75988ZM22.5015 26.5067L23.4286 26.8815L23.4684 26.7831L23.4866 26.6786L22.5015 26.5067ZM22.2832 26.8206L22.9505 27.5654L22.9531 27.5631L22.2832 26.8206ZM21.522 26.8555L20.8711 27.6146L20.9759 27.7045L21.1012 27.7626L21.522 26.8555ZM16.886 22.8798L16.2323 23.6365L16.2351 23.6389L16.886 22.8798ZM16.7554 22.767L17.4092 22.0103L16.3982 21.1368L15.8451 22.3531L16.7554 22.767ZM16.7536 22.7711L16.1168 23.5422L17.1235 24.3735L17.6639 23.185L16.7536 22.7711ZM15.3674 21.6264L14.5762 21.0148L13.9841 21.7809L14.7307 22.3975L15.3674 21.6264ZM23.1563 11.5498L22.3676 10.935L22.3651 10.9382L23.1563 11.5498ZM23.2235 10.9836L22.3031 11.3748L22.3081 11.3861L23.2235 10.9836ZM22.7813 10.6841L22.8038 11.6839L22.814 11.6836L22.7813 10.6841ZM22.5276 10.7723L23.1188 11.5788L23.1236 11.5753L22.5276 10.7723ZM11.2557 19.0354L10.903 19.9712L11.41 20.1622L11.8469 19.842L11.2557 19.0354ZM6.99836 17.4312L6.47738 18.2848L6.5577 18.3338L6.64575 18.367L6.99836 17.4312ZM6.55435 16.9922L7.54795 16.8793L7.54171 16.8244L7.52947 16.7706L6.55435 16.9922ZM6.57114 16.9553L7.42633 17.4738L7.43299 17.4625L6.57114 16.9553ZM6.71666 16.8056L6.11264 16.0085L6.10523 16.0143L6.71666 16.8056ZM7.01329 16.6353L6.66914 15.6964L6.64982 15.7035L6.6308 15.7113L7.01329 16.6353ZM7.03008 16.6291L7.37422 17.568L7.3929 17.5612L7.41129 17.5536L7.03008 16.6291ZM7.045 16.623L7.42622 17.5475L7.44921 17.538L7.4717 17.5274L7.045 16.623ZM15.8245 12.4832L15.3987 11.5784L15.3982 11.5786L15.8245 12.4832ZM21.9903 9.5825L22.416 10.4874L22.4164 10.4872L21.9903 9.5825ZM25.0536 8.1465L24.6589 7.22761L24.6481 7.23244L25.0536 8.1465ZM20.2199 13.7264L21.0111 14.3379L19.6285 12.9199L20.2199 13.7264ZM14.3134 21.3679L15.0532 22.0407L15.0801 22.0111L15.1046 21.9795L14.3134 21.3679ZM14.3096 21.372L13.5698 20.6992L13.5397 20.7323L13.5126 20.768L14.3096 21.372ZM14.2835 21.4089L15.1221 21.9537L15.1306 21.9407L15.1386 21.9274L14.2835 21.4089ZM14.2574 21.4541L15.1352 21.9331L15.1401 21.9242L15.1447 21.9152L14.2574 21.4541ZM14.1958 21.6551L14.9357 22.3279L15.1554 22.0863L15.1902 21.7615L14.1958 21.6551ZM14.1958 21.6592L15.176 21.8577L15.4186 20.6592H14.1958V21.6592ZM13.4253 25.4646L12.4725 25.7679L13.6409 29.4389L14.4055 25.6631L13.4253 25.4646ZM13.3899 25.36L14.3565 25.1036L14.3544 25.0956L14.3521 25.0877L13.3899 25.36ZM11.8769 19.8437L11.2856 19.0373L10.7303 19.4444L10.9126 20.1084L11.8769 19.8437ZM14.9794 22.6213L15.6159 21.85L14.3294 20.7885L13.9992 22.4233L14.9794 22.6213ZM16.0409 23.4973L16.7548 24.1976L17.518 23.4196L16.6774 22.726L16.0409 23.4973ZM14.4813 25.0871L13.5011 24.8891L12.8332 28.1951L15.1951 25.7874L14.4813 25.0871ZM25.3175 6.00277C24.9149 6.02048 24.5597 6.1411 24.2916 6.26012L25.103 8.08813C25.2415 8.02664 25.3416 8.00365 25.4054 8.00084L25.3175 6.00277ZM24.2962 6.25807C24.0784 6.35343 22.8944 6.9086 21.1878 7.7114L22.0391 9.52116C23.769 8.70743 24.9132 8.17125 25.0983 8.09018L24.2962 6.25807ZM21.1878 7.7114C19.47 8.51946 17.2351 9.57267 15.0219 10.6142L15.8735 12.4239C18.0891 11.3812 20.3205 10.3296 22.0391 9.52116L21.1878 7.7114ZM15.0215 10.6144C12.8069 11.6576 10.612 12.6921 8.97068 13.4657C8.15002 13.8525 7.46778 14.1742 6.99069 14.3991C6.75214 14.5116 6.56489 14.5999 6.43727 14.66C6.37346 14.6901 6.32456 14.7132 6.29161 14.7287C6.27514 14.7365 6.26265 14.7424 6.25428 14.7463C6.2501 14.7483 6.24694 14.7498 6.24483 14.7508C6.24378 14.7513 6.24298 14.7516 6.24246 14.7519C6.24219 14.752 6.24199 14.7521 6.24186 14.7522C6.24179 14.7522 6.24174 14.7522 6.24171 14.7522C6.24168 14.7523 6.24166 14.7523 6.66815 15.6568C7.09465 16.5612 7.09466 16.5612 7.0947 16.5612C7.09473 16.5612 7.09478 16.5612 7.09484 16.5612C7.09498 16.5611 7.09518 16.561 7.09544 16.5609C7.09597 16.5606 7.09676 16.5603 7.09781 16.5598C7.09992 16.5588 7.10307 16.5573 7.10726 16.5553C7.11562 16.5514 7.1281 16.5455 7.14458 16.5377C7.17752 16.5222 7.22641 16.4991 7.29021 16.469C7.41781 16.4089 7.60505 16.3206 7.84358 16.2081C8.32062 15.9832 9.00283 15.6616 9.82343 15.2748C11.4646 14.5012 13.6594 13.4668 15.8738 12.4237L15.0215 10.6144ZM7.02995 16.589L7.06167 16.5767L6.33807 14.7122L6.30635 14.7245L7.02995 16.589ZM6.69987 15.6444C6.35572 14.7055 6.35556 14.7056 6.3554 14.7057C6.35534 14.7057 6.35518 14.7057 6.35506 14.7058C6.35484 14.7059 6.35461 14.7059 6.35438 14.706C6.35391 14.7062 6.35343 14.7064 6.35293 14.7066C6.35193 14.7069 6.35086 14.7073 6.34972 14.7078C6.34744 14.7086 6.3449 14.7096 6.34209 14.7106C6.33647 14.7128 6.32979 14.7153 6.32212 14.7183C6.30679 14.7244 6.28741 14.7322 6.26454 14.7419C6.21897 14.7612 6.15864 14.7882 6.08825 14.8234C5.94986 14.8925 5.76041 14.999 5.56432 15.1483L6.77576 16.7396C6.84645 16.6858 6.92192 16.6426 6.98174 16.6127C7.01046 16.5984 7.03257 16.5886 7.04465 16.5835C7.05062 16.581 7.05387 16.5797 7.05397 16.5796C7.05401 16.5796 7.05325 16.5799 7.05161 16.5805C7.05079 16.5808 7.04976 16.5812 7.04849 16.5817C7.04786 16.5819 7.04717 16.5822 7.04643 16.5825C7.04605 16.5826 7.04567 16.5828 7.04526 16.5829C7.04506 16.583 7.04486 16.5831 7.04465 16.5831C7.04455 16.5832 7.04439 16.5832 7.04433 16.5832C7.04417 16.5833 7.04401 16.5834 6.69987 15.6444ZM5.55778 15.1533C5.37246 15.2968 5.12686 15.5149 4.92251 15.8502L6.63029 16.8911C6.661 16.8407 6.7027 16.7963 6.7823 16.7346L5.55778 15.1533ZM4.91884 15.8563C4.71335 16.1988 4.55253 16.6866 4.61267 17.2312L6.60059 17.0117C6.59929 17 6.5996 16.9804 6.60635 16.9534C6.61337 16.9253 6.62464 16.9006 6.63395 16.885L4.91884 15.8563ZM4.6129 17.2333C4.70706 18.0701 5.15917 18.6179 5.56382 18.9361C5.76227 19.0921 5.9532 19.1973 6.09634 19.2645C6.16875 19.2985 6.2314 19.324 6.28 19.3422C6.30438 19.3513 6.32546 19.3587 6.34272 19.3645C6.35135 19.3674 6.35906 19.3699 6.36577 19.372C6.36913 19.3731 6.37224 19.3741 6.3751 19.375C6.37653 19.3754 6.3779 19.3758 6.3792 19.3762C6.37985 19.3764 6.38048 19.3766 6.3811 19.3768C6.38141 19.3769 6.38186 19.377 6.38202 19.3771C6.38247 19.3772 6.38291 19.3774 6.67188 18.42C6.96086 17.4627 6.9613 17.4628 6.96173 17.4629C6.96187 17.463 6.9623 17.4631 6.96258 17.4632C6.96314 17.4634 6.96369 17.4635 6.96422 17.4637C6.9653 17.464 6.96632 17.4644 6.96729 17.4647C6.96923 17.4653 6.97097 17.4658 6.97253 17.4663C6.97563 17.4673 6.97798 17.4681 6.97963 17.4686C6.98289 17.4697 6.98341 17.4699 6.98156 17.4692C6.97768 17.4678 6.96511 17.4629 6.94654 17.4542C6.90772 17.436 6.85368 17.4061 6.80004 17.3639C6.70051 17.2857 6.62 17.1842 6.60036 17.0097L4.6129 17.2333ZM6.32771 19.3589L6.33331 19.361L7.02165 17.4832L7.01605 17.4811L6.32771 19.3589ZM6.32525 19.358L10.577 20.9581L11.2814 19.0863L7.02971 17.4862L6.32525 19.358ZM9.96421 20.2845C10.0716 20.6796 11.2542 25.0205 11.5152 25.9454L13.44 25.4023C13.1824 24.4891 12.0032 20.1608 11.8941 19.7598L9.96421 20.2845ZM11.5155 25.9466C11.673 26.5021 11.845 26.9174 12.0775 27.2481L13.7135 26.0977C13.6662 26.0304 13.5695 25.859 13.4397 25.4011L11.5155 25.9466ZM12.0783 27.2492C12.199 27.4204 12.3498 27.5875 12.5479 27.7261L13.6946 26.0874C13.7021 26.0927 13.7085 26.0978 13.7138 26.1023C13.719 26.1068 13.7225 26.1102 13.7243 26.1121C13.7278 26.1157 13.7238 26.1122 13.7127 26.0966L12.0783 27.2492ZM12.5415 27.7216C12.6506 27.7992 12.7577 27.8492 12.781 27.8606L13.6592 26.0637C13.65 26.0592 13.6464 26.0574 13.6436 26.056C13.6413 26.0548 13.6428 26.0556 13.6465 26.0576C13.6541 26.0617 13.6746 26.0731 13.701 26.092L12.5415 27.7216ZM13.2201 26.9621C13.9599 27.635 13.9598 27.6352 13.9596 27.6353C13.9595 27.6354 13.9594 27.6356 13.9593 27.6357C13.9591 27.6359 13.9588 27.6362 13.9586 27.6364C13.9582 27.6369 13.9577 27.6374 13.9573 27.6379C13.9563 27.6389 13.9554 27.6399 13.9545 27.6409C13.9526 27.643 13.9506 27.6451 13.9485 27.6474C13.9443 27.6518 13.9397 27.6566 13.9346 27.6618C13.9248 27.6718 13.9118 27.6847 13.896 27.6992C13.8755 27.718 13.8067 27.7806 13.7028 27.8377C13.6508 27.8663 13.5457 27.9185 13.4017 27.9449C13.2517 27.9723 13.0005 27.9808 12.7399 27.8376C12.4734 27.691 12.341 27.4652 12.2822 27.3034C12.2276 27.1534 12.222 27.0257 12.222 26.9621H14.222C14.222 26.9268 14.234 26.3766 13.7035 26.085C13.4427 25.9416 13.1913 25.9501 13.0412 25.9776C12.8969 26.0041 12.7916 26.0563 12.7393 26.0851C12.635 26.1424 12.5657 26.2054 12.5449 26.2246C12.5289 26.2392 12.5157 26.2522 12.5058 26.2623C12.5007 26.2676 12.496 26.2724 12.4918 26.2769C12.4897 26.2791 12.4877 26.2813 12.4858 26.2833C12.4849 26.2844 12.4839 26.2854 12.483 26.2864C12.4826 26.2869 12.4821 26.2874 12.4817 26.2879C12.4814 26.2881 12.4812 26.2884 12.481 26.2886C12.4809 26.2887 12.4807 26.2889 12.4807 26.289C12.4805 26.2891 12.4803 26.2893 13.2201 26.9621ZM13.222 27.9621C13.045 27.9621 12.9136 27.9133 12.8837 27.9023C12.8667 27.8961 12.851 27.8897 12.858 27.8925C12.8597 27.8932 12.8736 27.8988 12.8909 27.9052L13.5792 26.0273C13.5869 26.0301 13.5932 26.0326 13.5975 26.0343C13.5996 26.0351 13.6014 26.0358 13.6025 26.0362C13.6031 26.0365 13.6036 26.0367 13.6039 26.0368C13.6042 26.0369 13.6044 26.037 13.6044 26.037C13.609 26.0388 13.5911 26.0315 13.572 26.0245C13.5379 26.012 13.4028 25.9621 13.222 25.9621V27.9621ZM13.5792 26.0273L13.568 26.0232L12.8797 27.9011L12.8909 27.9052L13.5792 26.0273ZM12.7421 27.8384C12.7155 27.8238 12.6958 27.8112 12.693 27.8094C12.6802 27.8013 12.701 27.8146 12.709 27.8195C12.723 27.8282 12.7539 27.847 12.7947 27.8673C12.8354 27.8876 12.8993 27.9162 12.9812 27.9387L13.5113 26.0102C13.5895 26.0317 13.6496 26.0588 13.6866 26.0772C13.7236 26.0956 13.7509 26.1123 13.7611 26.1186C13.7668 26.1221 13.771 26.1248 13.7713 26.125C13.774 26.1268 13.7684 26.1232 13.766 26.1216C13.7593 26.1174 13.736 26.1025 13.7056 26.0858L12.7421 27.8384ZM12.865 27.8989C12.9041 27.915 12.944 27.9289 12.9851 27.9405C13.025 27.9518 13.0585 27.9587 13.0803 27.9628C13.0907 27.9648 13.0993 27.9663 13.1038 27.9671C13.1062 27.9675 13.1083 27.9678 13.1094 27.968C13.1108 27.9683 13.1109 27.9683 13.1113 27.9683C13.1113 27.9683 13.1044 27.9672 13.095 27.9653L13.4871 26.0041C13.4674 26.0002 13.4516 25.9975 13.4437 25.9962C13.4307 25.994 13.443 25.996 13.4528 25.9979C13.4678 26.0007 13.4949 26.0062 13.5283 26.0157C13.5627 26.0254 13.5959 26.0369 13.6275 26.05L12.865 27.8989ZM12.933 27.9184C13.4776 28.1272 13.9681 28.0293 14.2835 27.9058C14.441 27.844 14.5674 27.7717 14.6564 27.7137C14.7016 27.6842 14.7392 27.6571 14.7685 27.6348C14.7832 27.6236 14.796 27.6135 14.8067 27.6048C14.8121 27.6004 14.817 27.5964 14.8214 27.5927C14.8236 27.5908 14.8257 27.5891 14.8276 27.5874C14.8286 27.5866 14.8295 27.5858 14.8305 27.585C14.8309 27.5846 14.8314 27.5843 14.8318 27.5839C14.832 27.5837 14.8323 27.5834 14.8325 27.5833C14.8328 27.583 14.8331 27.5828 14.1809 26.8247C13.5287 26.0666 13.529 26.0664 13.5294 26.0661C13.5295 26.066 13.5298 26.0657 13.53 26.0656C13.5304 26.0652 13.5308 26.0648 13.5312 26.0645C13.532 26.0638 13.5328 26.0631 13.5336 26.0625C13.5352 26.0611 13.5367 26.0599 13.5381 26.0587C13.5409 26.0563 13.5435 26.0542 13.5458 26.0523C13.5504 26.0486 13.5541 26.0457 13.5568 26.0437C13.5621 26.0396 13.5644 26.0381 13.5643 26.0382C13.5625 26.0394 13.5577 26.0421 13.5537 26.0437C13.5458 26.0467 13.5914 26.0289 13.649 26.051L12.933 27.9184ZM14.8309 27.5847L14.8477 27.5703L13.5477 26.0504L13.531 26.0647L14.8309 27.5847ZM14.9116 27.5106L17.5234 24.8478L16.0956 23.4473L13.4838 26.1101L14.9116 27.5106ZM16.1588 24.9069L20.3974 28.5399L21.699 27.0214L17.4603 23.3883L16.1588 24.9069ZM20.5935 28.6713L20.6457 28.698L21.5551 26.9167L21.5029 26.89L20.5935 28.6713ZM20.6611 28.7057C21.7903 29.2578 22.8932 28.9676 23.5509 28.3818L22.2207 26.8883C22.1322 26.9671 21.8956 27.083 21.5397 26.909L20.6611 28.7057ZM23.5528 28.3801C23.8454 28.1182 24.0387 27.829 24.1572 27.6162C24.2177 27.5075 24.2623 27.412 24.2932 27.3399C24.3088 27.3036 24.3211 27.2727 24.3303 27.2484C24.3349 27.2362 24.3388 27.2256 24.342 27.2167C24.3436 27.2123 24.345 27.2083 24.3463 27.2047C24.3469 27.2029 24.3475 27.2012 24.348 27.1997C24.3483 27.1989 24.3486 27.1981 24.3488 27.1974C24.3489 27.1971 24.349 27.1967 24.3492 27.1963C24.3492 27.1962 24.3493 27.1959 24.3493 27.1958C24.3494 27.1956 24.3495 27.1953 23.4026 26.8739C22.4556 26.5525 22.4557 26.5523 22.4558 26.552C22.4558 26.552 22.4559 26.5517 22.456 26.5516C22.4561 26.5512 22.4562 26.5509 22.4563 26.5506C22.4565 26.55 22.4567 26.5494 22.4569 26.5488C22.4573 26.5477 22.4577 26.5466 22.458 26.5457C22.4587 26.5437 22.4592 26.5422 22.4597 26.541C22.4605 26.5385 22.4609 26.5374 22.4609 26.5376C22.4607 26.538 22.4587 26.5432 22.4548 26.5523C22.4468 26.571 22.4319 26.6035 22.4096 26.6435C22.3625 26.7282 22.2975 26.8195 22.2188 26.8899L23.5528 28.3801ZM24.3398 27.2226L24.3566 27.1775L22.4821 26.4801L22.4653 26.5252L24.3398 27.2226ZM24.4045 27.0006L27.5182 9.15123L25.5479 8.80753L22.4342 26.657L24.4045 27.0006ZM27.5135 9.176C27.611 8.68994 27.6419 8.18941 27.5224 7.69015L25.5773 8.15565C25.6071 8.28001 25.6155 8.46876 25.5526 8.78276L27.5135 9.176ZM27.5214 7.68613C27.3942 7.16424 27.0818 6.66181 26.6126 6.3531L25.5133 8.02388C25.5009 8.01575 25.5115 8.01967 25.5308 8.04863C25.5493 8.07637 25.5673 8.11485 25.5783 8.15967L27.5214 7.68613ZM26.6094 6.35105C26.1826 6.0725 25.7269 5.98095 25.3083 6.00322L25.4146 8.0004C25.4408 7.999 25.4582 8.00148 25.47 8.00443C25.4807 8.00711 25.4955 8.0123 25.5164 8.02593L26.6094 6.35105ZM25.4288 9.06762C25.4336 9.06741 25.4191 9.06861 25.3867 9.06471C25.371 9.06282 25.3377 9.05815 25.293 9.04642C25.2702 9.04043 25.2372 9.03071 25.1979 9.01535C25.161 9.00093 25.1009 8.97478 25.0323 8.93078L26.1122 7.24735C25.9777 7.16111 25.8527 7.12558 25.8011 7.11202C25.7342 7.09446 25.6734 7.08479 25.6258 7.07905C25.5295 7.06746 25.4329 7.06558 25.3426 7.06948L25.4288 9.06762ZM24.981 8.89558C24.9983 8.90824 25.0168 8.92083 25.0116 8.91728C25.0112 8.917 25.0054 8.91298 24.9977 8.90742C24.9896 8.90157 24.9774 8.89251 24.9628 8.88084C24.8899 8.82263 24.8155 8.74522 24.7536 8.64708C24.7022 8.56563 24.6769 8.49709 24.6679 8.47162C24.6584 8.44437 24.6549 8.42883 24.6571 8.43763L26.5956 7.94564C26.5867 7.91033 26.5736 7.86197 26.5553 7.80979C26.5376 7.75937 26.5043 7.67378 26.445 7.57977C26.3053 7.3584 26.0552 7.20316 26.1635 7.28255L24.981 8.89558ZM24.6536 8.42333C24.6453 8.38861 24.6433 8.36734 24.643 8.36359C24.6425 8.35828 24.6432 8.36236 24.6429 8.37659C24.6423 8.40516 24.6382 8.46501 24.6196 8.55766L26.5808 8.94979C26.6559 8.57458 26.6641 8.2327 26.5991 7.95994L24.6536 8.42333ZM24.6432 8.46364L24.6414 8.4698L26.5554 9.04996L26.5572 9.0438L24.6432 8.46364ZM24.6133 8.58797L21.5164 26.3348L23.4866 26.6786L26.5835 8.93178L24.6133 8.58797ZM21.5744 26.132C21.5733 26.1345 21.5749 26.1307 21.5765 26.127C21.5779 26.1236 21.5791 26.1208 21.5802 26.1187C21.5821 26.1146 21.5833 26.1125 21.5841 26.1111C21.5848 26.1099 21.5865 26.1071 21.59 26.1027C21.5934 26.0983 21.6008 26.0894 21.6133 26.0781L22.9531 27.5631C23.1213 27.4113 23.2339 27.2501 23.3042 27.1316C23.3404 27.0705 23.3684 27.0156 23.3892 26.9715C23.3997 26.9493 23.4084 26.9297 23.4154 26.9133C23.4189 26.9051 23.4219 26.8979 23.4244 26.8919C23.4267 26.8863 23.4288 26.8811 23.4286 26.8815L21.5744 26.132ZM21.6159 26.0758C21.595 26.0945 21.6152 26.0737 21.6583 26.0485C21.71 26.0184 21.7807 25.9892 21.8633 25.9768C22.0207 25.9532 22.0774 26.0107 21.9429 25.9484L21.1012 27.7626C21.4089 27.9054 21.7706 28.0132 22.1602 27.9546C22.5734 27.8926 22.8352 27.6687 22.9505 27.5654L21.6159 26.0758ZM22.173 26.0964L17.537 22.1207L16.2351 23.6389L20.8711 27.6146L22.173 26.0964ZM17.5398 22.1231L17.4092 22.0103L16.1017 23.5237L16.2323 23.6365L17.5398 22.1231ZM15.8451 22.3531L15.8433 22.3572L17.6639 23.185L17.6658 23.1809L15.8451 22.3531ZM17.3903 22L16.0042 20.8553L14.7307 22.3975L16.1168 23.5422L17.3903 22ZM16.1586 22.238L23.9475 12.1614L22.3651 10.9382L14.5762 21.0148L16.1586 22.238ZM23.945 12.1646C24.2999 11.7092 24.3652 11.0957 24.1389 10.5811L22.3081 11.3861C22.2459 11.2449 22.2589 11.0745 22.3676 10.935L23.945 12.1646ZM24.1438 10.5924C23.9192 10.064 23.392 9.66363 22.7487 9.68464L22.814 11.6836C22.5475 11.6923 22.3673 11.5258 22.3032 11.3748L24.1438 10.5924ZM22.7589 9.68436C22.4538 9.69121 22.1669 9.79467 21.9316 9.96934L23.1236 11.5753C23.0375 11.6392 22.9261 11.6811 22.8038 11.6839L22.7589 9.68436ZM21.9364 9.96582L10.6644 18.2289L11.8469 19.842L23.1188 11.5788L21.9364 9.96582ZM11.6083 18.0997L7.35098 16.4955L6.64575 18.367L10.903 19.9712L11.6083 18.0997ZM6.99836 17.4312C7.51934 16.5777 7.51946 16.5777 7.51958 16.5778C7.51962 16.5778 7.51973 16.5779 7.51981 16.578C7.51996 16.578 7.5201 16.5781 7.52024 16.5782C7.52051 16.5784 7.52076 16.5785 7.52099 16.5787C7.52145 16.579 7.52181 16.5792 7.52209 16.5794C7.52264 16.5797 7.52284 16.5798 7.52272 16.5797C7.52247 16.5796 7.52095 16.5786 7.51834 16.577C7.51304 16.5736 7.50377 16.5676 7.49188 16.5595C7.46667 16.5425 7.43692 16.5212 7.41065 16.5001C7.37968 16.4752 7.37738 16.4696 7.39121 16.4857C7.39889 16.4946 7.42457 16.5253 7.45319 16.5768C7.47984 16.6247 7.53091 16.7294 7.54795 16.8793L5.56075 17.1052C5.60128 17.4617 5.80183 17.7047 5.87357 17.7883C5.97257 17.9036 6.07999 17.9965 6.15745 18.0588C6.23962 18.1248 6.31703 18.1795 6.37186 18.2165C6.4 18.2355 6.42397 18.2511 6.44192 18.2626C6.45093 18.2683 6.45852 18.2731 6.46449 18.2768C6.46747 18.2787 6.47005 18.2803 6.47221 18.2816C6.47329 18.2823 6.47426 18.2829 6.47512 18.2834C6.47556 18.2837 6.47596 18.2839 6.47634 18.2842C6.47653 18.2843 6.47671 18.2844 6.47688 18.2845C6.47697 18.2846 6.4771 18.2846 6.47714 18.2847C6.47726 18.2847 6.47738 18.2848 6.99836 17.4312ZM7.52947 16.7706C7.51634 16.7128 7.50068 16.6674 7.49022 16.6394C7.48824 16.6341 7.48659 16.6298 7.48652 16.6297C7.48586 16.628 7.48767 16.6326 7.48956 16.6377C7.49308 16.647 7.50567 16.6806 7.51777 16.725C7.54829 16.8368 7.56522 16.9766 7.54227 17.1324C7.52306 17.2628 7.4821 17.3586 7.46397 17.3985C7.4448 17.4406 7.42698 17.4716 7.42279 17.4789C7.41945 17.4847 7.41682 17.4891 7.4155 17.4913C7.41413 17.4936 7.41321 17.4951 7.41312 17.4953C7.40731 17.5048 7.42404 17.4774 7.42626 17.4737L5.71602 16.4369C5.70705 16.4517 5.71585 16.4371 5.7045 16.4557C5.7024 16.4592 5.69576 16.4701 5.68821 16.4833C5.68234 16.4935 5.66332 16.5267 5.64334 16.5706C5.62439 16.6123 5.58299 16.7094 5.56361 16.841C5.5405 16.9979 5.55753 17.1386 5.58831 17.2514C5.60054 17.2962 5.6133 17.3303 5.61702 17.3402C5.61901 17.3455 5.62092 17.3505 5.62038 17.349C5.62037 17.349 5.61994 17.3479 5.61941 17.3465C5.61884 17.345 5.61801 17.3429 5.61702 17.3402C5.60703 17.3135 5.59189 17.2696 5.57923 17.2139L7.52947 16.7706ZM7.43299 17.4625C7.40604 17.5083 7.38254 17.5383 7.37351 17.5496C7.36216 17.5638 7.35376 17.5729 7.34942 17.5775C7.34142 17.5858 7.33533 17.5913 7.32809 17.5969L6.10523 16.0143C5.98181 16.1096 5.81868 16.2622 5.70929 16.4481L7.43299 17.4625ZM7.32065 17.6025C7.32848 17.5966 7.34889 17.5835 7.37688 17.569C7.38865 17.5629 7.39785 17.5586 7.40241 17.5565C7.40459 17.5555 7.40535 17.5552 7.4044 17.5556C7.40392 17.5558 7.40299 17.5562 7.40157 17.5568C7.40086 17.5571 7.40003 17.5575 7.39907 17.5579C7.39858 17.5581 7.39807 17.5583 7.39752 17.5585C7.39725 17.5586 7.39697 17.5588 7.39668 17.5589C7.39653 17.5589 7.39638 17.559 7.39623 17.5591C7.39616 17.5591 7.39604 17.5591 7.39601 17.5592C7.39589 17.5592 7.39578 17.5592 7.01329 16.6353C6.6308 15.7113 6.63068 15.7114 6.63057 15.7114C6.63053 15.7114 6.63041 15.7115 6.63033 15.7115C6.63017 15.7116 6.63001 15.7117 6.62984 15.7117C6.62952 15.7119 6.62918 15.712 6.62882 15.7121C6.62812 15.7124 6.62738 15.7127 6.62659 15.7131C6.62502 15.7137 6.62328 15.7145 6.62137 15.7153C6.61757 15.7169 6.61309 15.7188 6.60801 15.721C6.59785 15.7254 6.58514 15.731 6.5703 15.7378C6.54081 15.7513 6.50174 15.7699 6.45661 15.7933C6.37079 15.8378 6.24289 15.9099 6.11267 16.0086L7.32065 17.6025ZM7.35743 17.5742L7.37422 17.568L6.68593 15.6902L6.66914 15.6964L7.35743 17.5742ZM7.41129 17.5536L7.42622 17.5475L6.66379 15.6985L6.64887 15.7046L7.41129 17.5536ZM7.045 16.623C7.4717 17.5274 7.47171 17.5274 7.47175 17.5274C7.47178 17.5273 7.47183 17.5273 7.47189 17.5273C7.47203 17.5272 7.47223 17.5271 7.47249 17.527C7.47302 17.5268 7.47381 17.5264 7.47486 17.5259C7.47697 17.5249 7.48013 17.5234 7.48431 17.5214C7.49268 17.5175 7.50517 17.5116 7.52164 17.5038C7.5546 17.4883 7.60351 17.4652 7.66734 17.4351C7.79498 17.3749 7.98228 17.2865 8.22088 17.1739C8.69807 16.9488 9.38045 16.627 10.2012 16.2399C11.8426 15.4658 14.0374 14.4309 16.2508 13.3878L15.3982 11.5786C13.1846 12.6218 10.9896 13.6568 9.34805 14.431C8.52727 14.8181 7.84485 15.14 7.36761 15.3651C7.12899 15.4777 6.94167 15.566 6.814 15.6263C6.75017 15.6564 6.70125 15.6795 6.66829 15.695C6.6518 15.7028 6.63931 15.7087 6.63094 15.7126C6.62675 15.7146 6.6236 15.7161 6.62149 15.7171C6.62043 15.7176 6.61964 15.718 6.61911 15.7182C6.61884 15.7183 6.61864 15.7184 6.61851 15.7185C6.61844 15.7185 6.61839 15.7185 6.61836 15.7186C6.61833 15.7186 6.61831 15.7186 7.045 16.623ZM16.2503 13.388C18.4647 12.3459 20.6977 11.2957 22.416 10.4874L21.5646 8.67762C19.8465 9.48585 17.6133 10.5362 15.3987 11.5784L16.2503 13.388ZM22.4164 10.4872C23.274 10.0833 24.0127 9.73638 24.55 9.48463C24.8187 9.35873 25.0367 9.25679 25.194 9.18348C25.2727 9.1468 25.3357 9.11751 25.382 9.09607C25.4052 9.08533 25.4237 9.07681 25.4376 9.07043C25.4445 9.06724 25.4499 9.06477 25.4539 9.06294C25.4583 9.06095 25.4597 9.06033 25.4592 9.06057L24.6481 7.23244C24.5282 7.28562 23.2715 7.87381 21.5643 8.67779L22.4164 10.4872ZM25.4483 9.06533C25.4479 9.06549 25.4478 9.06556 25.4469 9.06574C25.4464 9.06587 25.4449 9.06617 25.4423 9.06652C25.4398 9.06685 25.4354 9.06734 25.4288 9.06762L25.3426 7.06948C25.1325 7.07854 24.8952 7.12621 24.659 7.22768L25.4483 9.06533ZM19.4287 13.1148L13.5222 20.7564L15.1046 21.9795L21.0111 14.3379L19.4287 13.1148ZM13.5736 20.6951L13.5698 20.6992L15.0495 22.0448L15.0532 22.0407L13.5736 20.6951ZM13.5126 20.768C13.5102 20.7712 13.4676 20.8258 13.4284 20.8905L15.1386 21.9274C15.124 21.9516 15.1119 21.9686 15.1074 21.9748C15.1035 21.9803 15.1006 21.9839 15.1066 21.976L13.5126 20.768ZM13.4449 20.8642C13.4145 20.9111 13.3891 20.9563 13.3701 20.9929L15.1447 21.9152C15.142 21.9206 15.1392 21.9255 15.1363 21.9306C15.1335 21.9354 15.1289 21.9433 15.1221 21.9537L13.4449 20.8642ZM13.3796 20.9751C13.2775 21.1621 13.2217 21.3604 13.2015 21.5487L15.1902 21.7615C15.1849 21.8104 15.1701 21.8691 15.1352 21.9331L13.3796 20.9751ZM13.456 20.9823C13.3755 21.0709 13.1944 21.303 13.1944 21.6579C13.1944 21.8612 13.2605 22.1477 13.5014 22.3794C13.7384 22.6075 14.0165 22.6592 14.1958 22.6592V20.6592C14.3743 20.6592 14.6517 20.7107 14.8882 20.9383C15.1286 21.1696 15.1944 21.4555 15.1944 21.6579C15.1944 22.0113 15.0143 22.2414 14.9357 22.3279L13.456 20.9823ZM13.2157 21.4608L12.4452 25.2662L14.4055 25.6631L15.176 21.8577L13.2157 21.4608ZM14.3782 25.1613C14.3694 25.1334 14.3611 25.1101 14.3541 25.0911C14.3509 25.0824 14.348 25.0748 14.3463 25.0704C14.3441 25.0647 14.344 25.0643 14.3436 25.0632C14.3435 25.063 14.3442 25.065 14.3454 25.0682C14.3466 25.0715 14.348 25.0757 14.3496 25.0804C14.3528 25.0904 14.3551 25.0985 14.3565 25.1036L12.4233 25.6164C12.4312 25.6461 12.4396 25.6744 12.4487 25.7022C12.4577 25.73 12.466 25.7524 12.4717 25.7676C12.4843 25.801 12.4761 25.7795 12.4725 25.7679L14.3782 25.1613ZM14.3521 25.0877C14.1091 24.229 12.9982 20.1507 12.8412 19.579L10.9126 20.1084C11.0653 20.665 12.1819 24.7637 12.4277 25.6323L14.3521 25.0877ZM12.4682 20.6502L20.8112 14.5328L19.6285 12.9199L11.2856 19.0373L12.4682 20.6502ZM14.3429 23.3926L15.4044 24.2686L16.6774 22.726L15.6159 21.85L14.3429 23.3926ZM15.3271 22.797L13.7674 24.3869L15.1951 25.7874L16.7548 24.1976L15.3271 22.797ZM15.4615 25.2852L15.9596 22.8193L13.9992 22.4233L13.5011 24.8891L15.4615 25.2852Z" fill="#655D5D" mask="url(#path-1-inside-1_1_36)"/>
<circle cx="17.5" cy="17.5" r="16.5" stroke="#655D5D" stroke-width="2"/>
</svg>
