<svg width="35" height="35" viewBox="0 0 35 35" fill="none" xmlns="http://www.w3.org/2000/svg">
<mask id="path-1-inside-1_1_30" fill="white">
<path d="M17.5 0C7.8435 0 0 7.8435 0 17.5C0 27.1565 7.8435 35 17.5 35C27.1565 35 35 27.1565 35 17.5C35 7.8435 27.1565 0 17.5 0ZM17.5 1.52174C26.3332 1.52174 33.4783 8.66678 33.4783 17.5C33.4783 26.3332 26.3332 33.4783 17.5 33.4783C8.66678 33.4783 1.52174 26.3332 1.52174 17.5C1.52174 8.66678 8.66678 1.52174 17.5 1.52174ZM9.96264 12.5989L6.65 12.6019C6.65 12.6019 6.64572 12.165 6.4347 12.1947C6.22368 12.2215 5.90863 12.2334 5.58764 12.5989H5.58466V12.6019C5.29934 12.9288 5.30825 13.3093 5.34392 13.5173C5.37959 13.7254 5.45983 13.8829 5.45983 13.8829V13.8859C5.48956 13.9572 7.71866 19.42 10.5303 22.3535C12.5127 24.4251 14.6319 25.1087 16.5192 25.1087H17.5C17.821 25.1087 18.1093 25.0938 18.4273 24.9274C18.7483 24.7639 19.0217 24.3092 19.0217 23.9525C19.0217 23.5721 19.0307 23.2035 19.0782 22.9955C19.1258 22.8053 19.1079 22.8528 19.1258 22.8499C19.1436 22.8558 19.1763 22.8618 19.2387 22.8915C19.3754 22.9539 19.5864 23.0906 19.8183 23.2689C20.2819 23.6315 20.8318 24.1546 21.45 24.5588C22.3327 25.1444 23.2927 25.1087 23.2927 25.1087H26.4551L26.4878 25.1057C26.4878 25.1057 26.9752 25.0938 27.4716 24.7877C27.7212 24.6361 28.0184 24.3567 28.1165 23.9347C28.2176 23.5156 28.0898 23.0757 27.846 22.6864C27.7569 22.5467 27.3229 21.9166 25.5932 20.38C25.1473 19.9847 24.8412 19.7053 24.7193 19.5538C24.6777 19.5032 24.6748 19.5062 24.6658 19.5032C24.6748 19.4794 24.7758 19.2684 25.0433 18.9207C25.3227 18.5581 25.7447 18.0528 26.2886 17.3603C26.9841 16.4746 27.4716 15.6246 27.7777 14.9083C27.9322 14.5487 28.0392 14.2247 28.1046 13.9275C28.17 13.6332 28.2205 13.3895 28.1254 13.0388C28.0541 12.7773 27.8579 12.5454 27.6677 12.4206C27.4775 12.2987 27.2992 12.2512 27.1387 12.2244C26.8177 12.165 26.5353 12.1739 26.2738 12.1739C25.7239 12.1739 23.2749 12.1947 23.0728 12.1947C22.835 12.1947 22.4575 12.2928 22.2822 12.3939C21.8483 12.6405 21.7115 12.9823 21.7115 12.9823L21.6699 13.0566L21.6461 13.1369C21.6461 13.1369 21.0874 14.941 20.5138 15.8713C19.8391 16.965 19.3368 17.3989 19.1139 17.5238C19.0931 17.5357 19.105 17.5297 19.0871 17.5386C19.0723 17.4881 19.0485 17.4168 19.0336 17.289C19.0039 17.0007 19.0217 16.5935 19.0217 16.1982C19.0217 15.1074 19.105 14.4268 19.0128 13.7818C18.9682 13.4609 18.8523 13.1012 18.5878 12.8248C18.9296 12.9021 18.3233 12.5484 18.5878 12.8248C18.2341 12.7446 18.55 12.95 17.6397 12.6C16.4716 12.5881 15.4 12.6 15.4 12.5008L15.7019 12.8248C15.4344 12.9496 15.3763 12.95 14.35 12.95C14.2579 13.0451 13.3773 12.9939 13.3 13.3C13.2643 13.4546 13.1904 13.7581 13.3628 13.9929C13.5381 14.2277 13.3747 14.0842 13.65 14.35C13.9253 14.6158 13.893 14.6465 14 14.7C13.9762 14.6703 14.11 14.7535 14 14.7C14 15.05 13.6451 14.9291 13.6719 15.1639C13.7016 15.3987 13.6957 15.5859 13.6957 15.5859L13.6927 15.6305L13.6986 15.6781C13.6986 15.6781 13.7462 16.1952 13.7194 16.7272C13.7075 16.9947 13.6748 17.2652 13.6303 17.4287C13.6273 17.4376 13.6273 17.4346 13.6243 17.4406C13.4341 17.3098 12.9942 16.8461 12.3879 15.8445C11.8291 14.9202 11.306 13.2587 11.306 13.2587L11.2942 13.2201L11.2793 13.1844C11.2793 13.1844 11.2839 13.1309 10.85 12.8248C10.4458 12.5425 9.96264 12.5989 9.96264 12.5989ZM9.8 13.3C9.84458 13.3149 9.8 13.177 10.5 13.877C10.7736 14.1129 10.7736 14.1189 10.5 13.877C10.5208 13.9483 11.1748 15.5978 11.9 16.7986C12.5628 17.8894 12.768 18.1844 13.3 18.55C14 18.9 14.35 18.3532 14 18.55C14 18.9 14.6049 17.8448 14.7 17.5C14.7951 17.1552 14.7627 15.7329 14.7775 15.4C14.8072 14.7669 14.7835 14.8167 14.7775 14.7632C14.8162 15.0991 14.7306 14.3412 14.7775 14.7632C14.7235 14.2939 14.7389 14.4274 14.7775 14.7632C14.7775 13.6219 15.2976 13.6897 15.9693 13.6957C16.8313 13.7046 16.962 13.7402 17.2979 13.8175C17.4822 13.8591 17.503 13.8948 17.4851 13.877C17.4703 13.8591 17.4851 13.8472 17.5059 13.9929C17.5476 14.2901 17.5 15.048 17.5 16.1982C17.5 16.5222 17.4673 16.9799 17.5208 17.4584C17.5773 17.9369 17.7259 18.5492 18.3025 18.9058C18.6324 19.1109 19.2625 19.1822 19.8569 18.8494C20.4513 18.5194 21.0606 17.8864 21.8096 16.6678C22.5497 15.4671 22.9925 13.8888 23.0401 13.7194C23.0401 13.7194 23.049 13.7165 23.0549 13.7105C23.0698 13.7135 23.052 13.7135 23.0728 13.7135C23.3551 13.7135 25.7596 13.6957 26.2738 13.6957C26.4164 13.6957 26.4789 13.7046 26.5829 13.7075C26.5413 13.871 26.4818 14.0642 26.3778 14.3079C26.1311 14.8875 25.7061 15.6394 25.0909 16.4211C24.5648 17.0958 24.1517 17.5832 23.8366 17.9904C23.5245 18.4006 23.2779 18.7216 23.1738 19.1882C23.0698 19.6548 23.2689 20.1779 23.5364 20.5108C23.8039 20.8466 24.1368 21.126 24.5826 21.5183C26.2559 23.0074 26.5324 23.4562 26.5561 23.4978C26.5858 23.5453 26.568 23.4978 26.5769 23.5216C26.4848 23.5513 26.3719 23.584 26.36 23.587H23.2749C23.2749 23.587 22.7102 23.5691 22.2881 23.2897V23.2868H22.2852C21.8423 22.9955 21.3043 22.4962 20.7515 22.0682C20.4751 21.8542 20.1928 21.6521 19.8658 21.5035C19.5419 21.3578 19.1258 21.2538 18.6918 21.3816C18.0617 21.5718 17.711 22.1722 17.5981 22.6478C17.5178 22.9896 17.5297 23.2868 17.5267 23.584C17.5059 23.587 17.5267 23.587 17.5 23.587H16.5192C14.9737 23.587 13.3657 23.1144 11.63 21.3014C9.37415 18.9445 6.60316 13.9513 6.3 13.2587L9.8 13.3ZM22.9896 13.7016C22.9747 13.7046 23.0133 13.7075 23.046 13.7105C23.0431 13.7135 23.046 13.7075 23.0401 13.7105C23.0401 13.6986 23.0074 13.6986 22.9896 13.7016Z"/>
</mask>
<path d="M9.96264 12.5989L9.96353 13.5989L10.0213 13.5989L10.0787 13.5922L9.96264 12.5989ZM6.65 12.6019L5.65005 12.6117L5.65976 13.6028L6.6509 13.6019L6.65 12.6019ZM6.4347 12.1947L6.56046 13.1869L6.57417 13.1849L6.4347 12.1947ZM5.58764 12.5989V13.5989H6.04037L6.33908 13.2587L5.58764 12.5989ZM5.58466 12.5989V11.5989H4.58466V12.5989H5.58466ZM5.58466 12.6019L6.33809 13.2594L6.58466 12.9769V12.6019H5.58466ZM5.34392 13.5173L6.32954 13.3484L6.32954 13.3484L5.34392 13.5173ZM5.45983 13.8829H6.45983V13.6429L6.35087 13.429L5.45983 13.8829ZM5.45983 13.8859H4.45983V14.0859L4.53676 14.2705L5.45983 13.8859ZM10.5303 22.3535L11.2528 21.6621L11.2523 21.6616L10.5303 22.3535ZM18.4273 24.9274L17.9735 24.0362L17.9636 24.0414L18.4273 24.9274ZM19.0782 22.9955L18.1081 22.753L18.1056 22.7628L18.1034 22.7727L19.0782 22.9955ZM19.1258 22.8499L19.442 21.9012L19.2064 21.8226L18.9614 21.8635L19.1258 22.8499ZM19.2387 22.8915L18.8088 23.7943L18.8161 23.7978L18.8234 23.8012L19.2387 22.8915ZM19.8183 23.2689L20.4343 22.4812L20.428 22.4763L19.8183 23.2689ZM21.45 24.5588L22.0028 23.7255L21.9972 23.7219L21.45 24.5588ZM23.2927 25.1087V24.1087H23.2741L23.2556 24.1094L23.2927 25.1087ZM26.4551 25.1087V26.1087H26.5004L26.5456 26.1046L26.4551 25.1087ZM26.4878 25.1057L26.4634 24.106L26.4302 24.1068L26.3972 24.1098L26.4878 25.1057ZM27.4716 24.7877L26.9526 23.9329L26.9466 23.9366L27.4716 24.7877ZM28.1165 23.9347L27.1443 23.7003L27.1425 23.7083L28.1165 23.9347ZM27.846 22.6864L28.6937 22.1558L28.689 22.1484L27.846 22.6864ZM25.5932 20.38L26.2573 19.6324L26.2566 19.6318L25.5932 20.38ZM24.7193 19.5538L25.4988 18.9272L25.4913 18.9181L24.7193 19.5538ZM24.6658 19.5032L23.7295 19.1521L23.3652 20.1237L24.3496 20.4519L24.6658 19.5032ZM25.0433 18.9207L24.2512 18.3103L24.2507 18.311L25.0433 18.9207ZM26.2886 17.3603L27.0751 17.978L27.0751 17.9779L26.2886 17.3603ZM27.7777 14.9083L26.8589 14.5134L26.8581 14.5153L27.7777 14.9083ZM28.1046 13.9275L27.1284 13.7105L27.128 13.7126L28.1046 13.9275ZM28.1254 13.0388L29.0906 12.7771L29.0902 12.7757L28.1254 13.0388ZM27.6677 12.4206L28.2164 11.5845L28.2071 11.5786L27.6677 12.4206ZM27.1387 12.2244L26.9566 13.2077L26.9654 13.2094L26.9743 13.2108L27.1387 12.2244ZM22.2822 12.3939L22.7764 13.2632L22.7815 13.2603L22.2822 12.3939ZM21.7115 12.9823L22.584 13.4709L22.6158 13.4142L22.64 13.3537L21.7115 12.9823ZM21.6699 13.0566L20.7974 12.568L20.7429 12.6655L20.7111 12.7725L21.6699 13.0566ZM21.6461 13.1369L22.6014 13.4328L22.6049 13.421L21.6461 13.1369ZM20.5138 15.8713L21.3649 16.3963L21.3649 16.3961L20.5138 15.8713ZM19.1139 17.5238L18.6253 16.6512L18.6177 16.6555L19.1139 17.5238ZM19.0871 17.5386L18.1278 17.8208L18.4651 18.9677L19.5344 18.4331L19.0871 17.5386ZM19.0336 17.289L18.0388 17.3915L18.0403 17.4045L19.0336 17.289ZM19.0128 13.7818L18.0223 13.9194L18.0229 13.9233L19.0128 13.7818ZM17.6397 12.6L17.9986 11.6666L17.8302 11.6019L17.6499 11.6001L17.6397 12.6ZM15.4 12.5008L16.1316 11.8191L14.4 9.96093V12.5008H15.4ZM15.7019 12.8248L16.1248 13.731L17.3712 13.1493L16.4335 12.1431L15.7019 12.8248ZM14.35 12.95V11.95H13.9265L13.6318 12.2542L14.35 12.95ZM13.3 13.3L12.3304 13.0552L12.3279 13.0652L12.3256 13.0751L13.3 13.3ZM13.3628 13.9929L12.5567 14.5847L12.5616 14.5912L13.3628 13.9929ZM13.6719 15.1639L12.6782 15.2771L12.6798 15.2895L13.6719 15.1639ZM13.6957 15.5859L14.6934 15.6525L14.6946 15.6351L14.6951 15.6177L13.6957 15.5859ZM13.6927 15.6305L12.6949 15.564L12.6885 15.6596L12.7004 15.7546L13.6927 15.6305ZM13.6986 15.6781L14.6944 15.5865L14.6929 15.5702L14.6909 15.554L13.6986 15.6781ZM13.7194 16.7272L12.7207 16.677L12.7204 16.6828L13.7194 16.7272ZM13.6303 17.4287L14.579 17.7449L14.5877 17.7186L14.595 17.6918L13.6303 17.4287ZM13.6243 17.4406L13.0578 18.2646L14.0048 18.9157L14.5188 17.8877L13.6243 17.4406ZM12.3879 15.8445L11.5321 16.3618L11.5324 16.3624L12.3879 15.8445ZM11.306 13.2587L10.3503 13.5529L10.3522 13.5591L11.306 13.2587ZM11.2942 13.2201L12.2499 12.926L12.2358 12.88L12.2172 12.8355L11.2942 13.2201ZM11.2793 13.1844L10.283 13.0981L10.2618 13.3425L10.3562 13.569L11.2793 13.1844ZM10.85 12.8248L11.4265 12.0077L11.4227 12.005L10.85 12.8248ZM9.8 13.3L10.1162 12.3513L9.96801 12.3019L9.81179 12.3001L9.8 13.3ZM11.9 16.7986L11.044 17.3156L11.0454 17.3179L11.9 16.7986ZM13.3 18.55L12.7337 19.3742L12.7908 19.4134L12.8528 19.4444L13.3 18.55ZM14 18.55L13.5099 17.6783L13 17.965V18.55H14ZM14.7 17.5L15.664 17.7659L15.664 17.7659L14.7 17.5ZM14.7775 15.4L13.7786 15.3531L13.7785 15.3554L14.7775 15.4ZM15.9693 13.6957L15.9797 12.6957L15.9782 12.6957L15.9693 13.6957ZM17.2979 13.8175L17.0737 14.7921L17.0776 14.7929L17.2979 13.8175ZM17.4851 13.877L16.7169 14.5171L16.746 14.552L16.778 14.584L17.4851 13.877ZM17.5059 13.9929L18.4963 13.8542L18.4959 13.8514L17.5059 13.9929ZM17.5208 17.4584L16.527 17.5695L16.5277 17.5756L17.5208 17.4584ZM18.3025 18.9058L18.8304 18.0565L18.8285 18.0554L18.3025 18.9058ZM19.8569 18.8494L19.3716 17.975L19.3683 17.9768L19.8569 18.8494ZM21.8096 16.6678L20.9583 16.1431L20.9577 16.1442L21.8096 16.6678ZM23.0401 13.7194L22.7239 12.7707L22.2207 12.9384L22.0773 13.4492L23.0401 13.7194ZM23.0549 13.7105L23.2511 12.7299L22.7262 12.6249L22.3478 13.0035L23.0549 13.7105ZM26.5829 13.7075L27.552 13.9542L27.8601 12.7436L26.6114 12.7079L26.5829 13.7075ZM26.3778 14.3079L25.4581 13.9153L25.4577 13.9163L26.3778 14.3079ZM25.0909 16.4211L24.3051 15.8026L24.3023 15.8062L25.0909 16.4211ZM23.8366 17.9904L23.0457 17.3784L23.0408 17.3849L23.8366 17.9904ZM23.5364 20.5108L24.3187 19.8878L24.3159 19.8844L23.5364 20.5108ZM24.5826 21.5183L25.2474 20.7713L25.2433 20.7676L24.5826 21.5183ZM26.5561 23.4978L25.6879 23.9939L25.6977 24.0111L25.7081 24.0278L26.5561 23.4978ZM26.5769 23.5216L26.8839 24.4733L27.8812 24.1516L27.5133 23.1704L26.5769 23.5216ZM26.36 23.587V24.587H26.4831L26.6025 24.5571L26.36 23.587ZM23.2749 23.587L23.2433 24.5865L23.2591 24.587H23.2749V23.587ZM22.2881 23.2897H21.2881V23.827L21.7361 24.1236L22.2881 23.2897ZM22.2881 23.2868H23.2881V22.2868H22.2881V23.2868ZM22.2852 23.2868L21.7356 24.1223L21.9858 24.2868H22.2852V23.2868ZM20.7515 22.0682L21.3637 21.2775L20.7515 22.0682ZM19.8658 21.5035L20.2796 20.5931L20.2758 20.5914L19.8658 21.5035ZM18.6918 21.3816L18.4093 20.4223L18.4028 20.4243L18.6918 21.3816ZM17.5981 22.6478L16.6251 22.4167L16.6246 22.4192L17.5981 22.6478ZM17.5267 23.584L17.6682 24.5739L18.5181 24.4525L18.5267 23.594L17.5267 23.584ZM11.63 21.3014L10.9076 21.9928L10.9077 21.9929L11.63 21.3014ZM6.3 13.2587L6.31179 12.2588L4.76265 12.2406L5.38393 13.6598L6.3 13.2587ZM22.9896 13.7016L22.8252 12.7152L22.8092 12.7179L22.7934 12.721L22.9896 13.7016ZM23.046 13.7105L23.7532 14.4175L25.2625 12.9079L23.1366 12.7146L23.046 13.7105ZM23.0401 13.7105H22.0401V15.3285L23.4873 14.6049L23.0401 13.7105ZM17.5 -1C7.29121 -1 -1 7.29121 -1 17.5H1C1 8.39578 8.39578 1 17.5 1V-1ZM-1 17.5C-1 27.7088 7.29121 36 17.5 36V34C8.39578 34 1 26.6042 1 17.5H-1ZM17.5 36C27.7088 36 36 27.7088 36 17.5H34C34 26.6042 26.6042 34 17.5 34V36ZM36 17.5C36 7.29121 27.7088 -1 17.5 -1V1C26.6042 1 34 8.39578 34 17.5H36ZM17.5 2.52174C25.7809 2.52174 32.4783 9.21906 32.4783 17.5H34.4783C34.4783 8.1145 26.8855 0.521739 17.5 0.521739V2.52174ZM32.4783 17.5C32.4783 25.7809 25.7809 32.4783 17.5 32.4783V34.4783C26.8855 34.4783 34.4783 26.8855 34.4783 17.5H32.4783ZM17.5 32.4783C9.21906 32.4783 2.52174 25.7809 2.52174 17.5H0.521739C0.521739 26.8855 8.1145 34.4783 17.5 34.4783V32.4783ZM2.52174 17.5C2.52174 9.21906 9.21906 2.52174 17.5 2.52174V0.521739C8.1145 0.521739 0.521739 8.1145 0.521739 17.5H2.52174ZM9.96174 11.5989L6.6491 11.6019L6.6509 13.6019L9.96353 13.5989L9.96174 11.5989ZM6.65 12.6019C7.64995 12.5921 7.64995 12.5919 7.64995 12.5916C7.64995 12.5915 7.64994 12.5913 7.64994 12.5911C7.64994 12.5908 7.64993 12.5905 7.64993 12.5901C7.64992 12.5894 7.64991 12.5887 7.6499 12.5879C7.64988 12.5864 7.64986 12.5848 7.64983 12.583C7.64976 12.5795 7.64968 12.5755 7.64956 12.5711C7.64933 12.5621 7.64897 12.5513 7.64841 12.5387C7.64731 12.5138 7.64536 12.4812 7.64189 12.4431C7.63539 12.372 7.62162 12.2598 7.58927 12.1354C7.56177 12.0297 7.49626 11.8143 7.33149 11.6128C7.12926 11.3655 6.76439 11.1384 6.29523 11.2045L6.57417 13.1849C6.42331 13.2062 6.25545 13.1879 6.09561 13.1162C5.94364 13.0481 5.84297 12.9519 5.78323 12.8788C5.72502 12.8076 5.69397 12.7447 5.67925 12.711C5.66371 12.6754 5.65645 12.6495 5.65369 12.6389C5.64879 12.6201 5.64928 12.6152 5.65018 12.6251C5.6504 12.6275 5.65044 12.6287 5.65039 12.6277C5.65036 12.627 5.6503 12.6255 5.65024 12.6229C5.6502 12.6217 5.65017 12.6201 5.65014 12.6183C5.65012 12.6173 5.6501 12.6163 5.65009 12.6152C5.65008 12.6147 5.65007 12.6141 5.65007 12.6135C5.65006 12.6132 5.65006 12.6129 5.65006 12.6126C5.65006 12.6125 5.65005 12.6122 5.65005 12.6122C5.65005 12.6119 5.65005 12.6117 6.65 12.6019ZM6.30894 11.2027C6.25768 11.2092 5.9897 11.23 5.71531 11.3283C5.411 11.4373 5.10918 11.6282 4.8362 11.9391L6.33908 13.2587C6.36682 13.2271 6.38368 13.2152 6.38746 13.2126C6.38978 13.2111 6.39059 13.2107 6.39009 13.211C6.38962 13.2112 6.38925 13.2113 6.3895 13.2112C6.38987 13.2111 6.39733 13.2084 6.42112 13.2044C6.43374 13.2024 6.44924 13.2002 6.47224 13.1974C6.48415 13.1959 6.49563 13.1946 6.51087 13.1928C6.5249 13.1911 6.54242 13.1891 6.56045 13.1868L6.30894 11.2027ZM5.58764 11.5989H5.58466V13.5989H5.58764V11.5989ZM4.58466 12.5989V12.6019H6.58466V12.5989H4.58466ZM4.83124 11.9444C4.26388 12.5945 4.2984 13.3369 4.3583 13.6863L6.32954 13.3484C6.32791 13.3388 6.32644 13.3262 6.32617 13.3126C6.3259 13.299 6.32689 13.2881 6.32829 13.2803C6.32961 13.273 6.33102 13.2696 6.33145 13.2687C6.33153 13.2685 6.33262 13.2657 6.33809 13.2594L4.83124 11.9444ZM4.3583 13.6863C4.38956 13.8686 4.4389 14.0225 4.47892 14.1293C4.49941 14.1839 4.51873 14.2295 4.53429 14.2642C4.5421 14.2817 4.54907 14.2965 4.5549 14.3087C4.55781 14.3147 4.56045 14.3201 4.56278 14.3248C4.56394 14.3272 4.56502 14.3294 4.56603 14.3314C4.56653 14.3324 4.56701 14.3333 4.56747 14.3342C4.5677 14.3347 4.56793 14.3351 4.56815 14.3356C4.56826 14.3358 4.56837 14.336 4.56848 14.3362C4.56853 14.3363 4.56861 14.3365 4.56864 14.3365C4.56871 14.3367 4.56879 14.3368 5.45983 13.8829C6.35087 13.429 6.35095 13.4291 6.35103 13.4293C6.35106 13.4293 6.35113 13.4295 6.35118 13.4296C6.35129 13.4298 6.35139 13.43 6.35149 13.4302C6.35169 13.4306 6.35189 13.431 6.35208 13.4313C6.35246 13.4321 6.35283 13.4328 6.35318 13.4335C6.35387 13.4349 6.35451 13.4362 6.35507 13.4373C6.3562 13.4396 6.35708 13.4414 6.35774 13.4428C6.35903 13.4455 6.35945 13.4464 6.35919 13.4458C6.35858 13.4445 6.35561 13.4378 6.35158 13.427C6.34256 13.403 6.33395 13.374 6.32954 13.3484L4.3583 13.6863ZM4.45983 13.8829V13.8859H6.45983V13.8829H4.45983ZM4.53676 14.2705C4.5308 14.2562 4.55395 14.3122 4.56803 14.3459C4.58771 14.393 4.61568 14.4594 4.65155 14.5433C4.72326 14.7109 4.82654 14.9479 4.95822 15.2389C5.22134 15.8202 5.59905 16.6192 6.06609 17.5105C6.98981 19.2733 8.30242 21.4743 9.80837 23.0455L11.2523 21.6616C9.94656 20.2993 8.73879 18.302 7.83761 16.5822C6.94592 14.8805 6.39463 13.5294 6.38291 13.5012L4.53676 14.2705ZM9.80783 23.0449C11.9815 25.3163 14.3628 26.1087 16.5192 26.1087V24.1087C14.901 24.1087 13.044 23.5339 11.2528 21.6621L9.80783 23.0449ZM16.5192 26.1087H17.5V24.1087H16.5192V26.1087ZM17.5 26.1087C17.8529 26.1087 18.3476 26.0978 18.891 25.8134L17.9636 24.0414C17.91 24.0695 17.8629 24.084 17.8055 24.0932C17.7369 24.1043 17.6516 24.1087 17.5 24.1087V26.1087ZM18.8811 25.8185C19.2534 25.6289 19.5257 25.3179 19.6997 25.0313C19.8738 24.7446 20.0217 24.3632 20.0217 23.9525H18.0217C18.0217 23.9338 18.0235 23.9226 18.024 23.9198C18.0245 23.9168 18.0243 23.9191 18.022 23.9263C18.017 23.9419 18.0066 23.9662 17.9901 23.9935C17.9735 24.0208 17.9571 24.0405 17.9464 24.0512C17.9415 24.0562 17.9402 24.0568 17.9433 24.0545C17.9463 24.0522 17.9561 24.0451 17.9735 24.0363L18.8811 25.8185ZM20.0217 23.9525C20.0217 23.7675 20.024 23.5996 20.0309 23.4586C20.0344 23.3887 20.0387 23.3315 20.0436 23.2865C20.0459 23.2644 20.0482 23.2474 20.0502 23.2349C20.0522 23.2222 20.0533 23.2171 20.0531 23.2183L18.1034 22.7727C18.0255 23.1132 18.0217 23.6053 18.0217 23.9525H20.0217ZM20.0484 23.238C20.0615 23.1852 20.0704 23.1483 20.0762 23.1235C20.0878 23.0746 20.08 23.1099 20.0702 23.1425C20.0662 23.1557 20.0543 23.1943 20.0337 23.2423C20.0201 23.2741 19.9651 23.4036 19.8433 23.5328C19.7746 23.6057 19.6681 23.6966 19.5172 23.7627C19.3586 23.8322 19.1914 23.8564 19.033 23.8432C18.7595 23.8203 18.577 23.6888 18.5572 23.6754C18.5336 23.6594 18.5154 23.6455 18.5153 23.6454C18.5094 23.641 18.5204 23.6494 18.5297 23.6562C18.553 23.6732 18.606 23.7106 18.6797 23.7467C18.8506 23.8307 19.063 23.8741 19.2901 23.8363L18.9614 21.8635C19.1841 21.8263 19.3932 21.869 19.5614 21.9516C19.6338 21.9871 19.6856 22.0238 19.7079 22.04C19.7168 22.0465 19.7273 22.0545 19.721 22.0497C19.7204 22.0493 19.7018 22.0351 19.6778 22.0189C19.6572 22.0049 19.4739 21.8731 19.1998 21.8501C19.0411 21.8368 18.8736 21.8611 18.7146 21.9308C18.5634 21.997 18.4566 22.0881 18.3876 22.1614C18.2651 22.2913 18.2094 22.4219 18.195 22.4555C18.1737 22.5052 18.161 22.5462 18.1561 22.5625C18.146 22.5958 18.1389 22.6258 18.1377 22.6308C18.1352 22.6408 18.1321 22.6539 18.1301 22.6623C18.1254 22.6822 18.1186 22.7106 18.1081 22.753L20.0484 23.238ZM18.8095 23.7985C18.8204 23.8022 18.8297 23.8051 18.8369 23.8073C18.8442 23.8095 18.8503 23.8113 18.8547 23.8126C18.859 23.8138 18.8627 23.8149 18.8648 23.8155C18.8659 23.8158 18.867 23.8161 18.8677 23.8163C18.8684 23.8165 18.8689 23.8166 18.8692 23.8167C18.8713 23.8173 18.8644 23.8154 18.8551 23.8124C18.8455 23.8092 18.836 23.8058 18.8271 23.8022C18.8184 23.7988 18.8122 23.796 18.8088 23.7943L19.6686 21.9886C19.5977 21.9548 19.5339 21.9301 19.4759 21.9111C19.4484 21.9022 19.4261 21.8958 19.4151 21.8927C19.4073 21.8904 19.4107 21.8914 19.4117 21.8917C19.4139 21.8923 19.4259 21.8958 19.442 21.9012L18.8095 23.7985ZM18.8234 23.8012C18.8226 23.8008 18.8337 23.8059 18.8579 23.8198C18.8811 23.8331 18.9111 23.8513 18.9476 23.875C19.0209 23.9227 19.11 23.9858 19.2086 24.0616L20.428 22.4763C20.1785 22.2844 19.8956 22.0921 19.654 21.9818L18.8234 23.8012ZM19.2022 24.0567C19.5481 24.3272 20.2489 24.9683 20.9027 25.3958L21.9972 23.7219C21.4146 23.3409 21.0157 22.9359 20.4343 22.4812L19.2022 24.0567ZM20.8972 25.3922C21.4829 25.7807 22.0819 25.9562 22.5219 26.0369C22.7444 26.0777 22.9342 26.0958 23.0731 26.1036C23.1428 26.1075 23.2004 26.1088 23.2437 26.1091C23.2654 26.1092 23.2836 26.1091 23.298 26.1088C23.3053 26.1087 23.3115 26.1086 23.3168 26.1084C23.3195 26.1083 23.3219 26.1083 23.3241 26.1082C23.3252 26.1082 23.3262 26.1081 23.3271 26.1081C23.3276 26.1081 23.3281 26.1081 23.3285 26.1081C23.3288 26.108 23.3291 26.108 23.3292 26.108C23.3295 26.108 23.3298 26.108 23.2927 25.1087C23.2556 24.1094 23.2559 24.1094 23.2562 24.1094C23.2563 24.1094 23.2566 24.1093 23.2568 24.1093C23.2572 24.1093 23.2576 24.1093 23.2579 24.1093C23.2587 24.1093 23.2593 24.1093 23.26 24.1092C23.2612 24.1092 23.2622 24.1092 23.263 24.1091C23.2647 24.1091 23.2654 24.1091 23.2654 24.1091C23.2653 24.1091 23.262 24.1091 23.2558 24.1091C23.2432 24.109 23.2189 24.1086 23.1848 24.1067C23.116 24.1028 23.0107 24.0932 22.8828 24.0698C22.6221 24.0219 22.2998 23.9225 22.0027 23.7255L20.8972 25.3922ZM23.2927 26.1087H26.4551V24.1087H23.2927V26.1087ZM26.5456 26.1046L26.5783 26.1016L26.3972 24.1098L26.3645 24.1128L26.5456 26.1046ZM26.4878 25.1057C26.5122 26.1054 26.5125 26.1054 26.5127 26.1054C26.5129 26.1054 26.5132 26.1054 26.5134 26.1054C26.5138 26.1054 26.5142 26.1054 26.5146 26.1054C26.5155 26.1053 26.5163 26.1053 26.5173 26.1053C26.5191 26.1052 26.521 26.1052 26.5231 26.1051C26.5273 26.105 26.532 26.1048 26.5372 26.1046C26.5475 26.1041 26.5599 26.1035 26.5741 26.1025C26.6025 26.1007 26.6386 26.0978 26.6814 26.093C26.7665 26.0837 26.8798 26.067 27.0123 26.0373C27.2745 25.9785 27.6309 25.8644 27.9965 25.6388L26.9466 23.9366C26.8159 24.0172 26.6804 24.062 26.5747 24.0857C26.5234 24.0973 26.4838 24.1027 26.462 24.1051C26.4513 24.1063 26.4454 24.1067 26.4453 24.1067C26.4452 24.1067 26.4466 24.1066 26.4496 24.1065C26.4511 24.1064 26.4529 24.1063 26.4552 24.1063C26.4564 24.1062 26.4576 24.1062 26.459 24.1061C26.4597 24.1061 26.4604 24.1061 26.4611 24.1061C26.4615 24.1061 26.4618 24.1061 26.4622 24.106C26.4624 24.106 26.4627 24.106 26.4628 24.106C26.4631 24.106 26.4634 24.106 26.4878 25.1057ZM27.9905 25.6425C28.3806 25.4057 28.9113 24.9324 29.0905 24.1611L27.1425 23.7083C27.1338 23.7457 27.1156 23.7828 27.0822 23.823C27.0462 23.8662 26.9988 23.9048 26.9526 23.9329L27.9905 25.6425ZM29.0886 24.1691C29.2746 23.3981 29.0216 22.6797 28.6937 22.1558L26.9984 23.217C27.1579 23.4718 27.1606 23.6331 27.1444 23.7003L29.0886 24.1691ZM28.689 22.1484C28.5281 21.8964 28.0167 21.1953 26.2573 19.6324L24.929 21.1276C26.6292 22.6379 26.9856 23.197 27.0031 23.2244L28.689 22.1484ZM26.2566 19.6318C26.0343 19.4347 25.8552 19.2738 25.7185 19.1458C25.6504 19.082 25.5974 19.0306 25.5575 18.99C25.5378 18.9699 25.523 18.9543 25.5124 18.9427C25.5014 18.9306 25.4976 18.9258 25.4987 18.9272L23.94 20.1803C24.1285 20.4148 24.5176 20.7628 24.9297 21.1282L26.2566 19.6318ZM25.4913 18.9181C25.4753 18.8987 25.4555 18.8752 25.4335 18.8511C25.414 18.8297 25.376 18.7891 25.3245 18.7458C25.2654 18.696 25.1791 18.6342 25.0637 18.5851C25.0118 18.563 24.9694 18.5502 24.9539 18.5456C24.9263 18.5374 24.9626 18.548 24.9821 18.5546L24.3496 20.4519C24.3713 20.4592 24.4097 20.4703 24.3841 20.4627C24.3706 20.4587 24.3302 20.4466 24.2805 20.4254C24.1695 20.3782 24.0882 20.3193 24.0362 20.2755C23.9917 20.2381 23.9628 20.2065 23.9559 20.1989C23.9464 20.1885 23.9426 20.1836 23.9474 20.1895L25.4913 18.9181ZM25.6022 19.8544C25.5931 19.8785 25.5854 19.8959 25.5836 19.9001C25.5804 19.9073 25.5782 19.9121 25.5771 19.9142C25.5751 19.9186 25.575 19.9185 25.5775 19.9138C25.5823 19.9046 25.594 19.883 25.614 19.8498C25.6538 19.7837 25.7246 19.6751 25.8359 19.5304L24.2507 18.311C23.9552 18.695 23.788 18.9961 23.7295 19.1521L25.6022 19.8544ZM25.8354 19.531C26.1266 19.1531 26.4896 18.7234 27.0751 17.978L25.5022 16.7426C24.9998 17.3823 24.5188 17.963 24.2512 18.3103L25.8354 19.531ZM27.0751 17.9779C27.8207 17.0284 28.3544 16.1035 28.6972 15.3013L26.8581 14.5153C26.5887 15.1457 26.1475 15.9208 25.5021 16.7427L27.0751 17.9779ZM28.6964 15.3031C28.8704 14.8982 28.9996 14.5135 29.0813 14.1423L27.128 13.7126C27.0788 13.9359 26.994 14.1991 26.8589 14.5135L28.6964 15.3031ZM29.0808 14.1444C29.1513 13.8273 29.2535 13.3781 29.0906 12.7771L27.1603 13.3005C27.1785 13.3676 27.1794 13.4064 27.1772 13.4415C27.1739 13.4943 27.1627 13.5565 27.1284 13.7105L29.0808 14.1444ZM29.0902 12.7757C28.9447 12.2423 28.5765 11.8209 28.2164 11.5846L27.1191 13.2566C27.1148 13.2539 27.1178 13.2554 27.1254 13.2625C27.1327 13.2694 27.1409 13.2783 27.1485 13.2881C27.1561 13.298 27.1608 13.3059 27.1631 13.3102C27.1653 13.3146 27.1634 13.3121 27.1607 13.3019L29.0902 12.7757ZM28.2071 11.5786C27.8657 11.3598 27.545 11.2784 27.3031 11.238L26.9743 13.2108C27.0187 13.2182 27.046 13.2253 27.0663 13.2323C27.0851 13.2388 27.1048 13.2476 27.1283 13.2626L28.2071 11.5786ZM27.3208 11.2412C26.8889 11.1612 26.5001 11.1739 26.2738 11.1739V13.1739C26.5706 13.1739 26.7465 13.1688 26.9566 13.2077L27.3208 11.2412ZM26.2738 11.1739C25.9942 11.1739 25.2395 11.1792 24.5355 11.1843C23.8245 11.1896 23.1689 11.1947 23.0728 11.1947V13.1947C23.1787 13.1947 23.8488 13.1895 24.5502 13.1843C25.2587 13.1791 26.0036 13.1739 26.2738 13.1739V11.1739ZM23.0728 11.1947C22.8407 11.1947 22.5985 11.2387 22.4075 11.2873C22.223 11.3342 21.9846 11.4112 21.7829 11.5274L22.7815 13.2603C22.7591 13.2732 22.7586 13.2707 22.7909 13.2589C22.8186 13.2487 22.8566 13.2367 22.9007 13.2255C22.9445 13.2144 22.9868 13.2059 23.0225 13.2005C23.0607 13.1947 23.0771 13.1947 23.0728 13.1947V11.1947ZM21.788 11.5245C21.4353 11.725 21.1945 11.9697 21.0381 12.1753C20.9602 12.2778 20.9028 12.3711 20.862 12.4459C20.8415 12.4834 20.825 12.5166 20.8121 12.5443C20.8056 12.5582 20.8 12.5708 20.7951 12.5819C20.7927 12.5875 20.7905 12.5927 20.7885 12.5975C20.7875 12.6 20.7866 12.6023 20.7856 12.6045C20.7852 12.6056 20.7847 12.6067 20.7843 12.6078C20.7841 12.6083 20.7839 12.6089 20.7837 12.6094C20.7836 12.6097 20.7834 12.61 20.7834 12.6102C20.7832 12.6106 20.7831 12.6109 21.7115 12.9823C22.64 13.3537 22.6399 13.3541 22.6397 13.3545C22.6397 13.3546 22.6395 13.355 22.6394 13.3552C22.6392 13.3558 22.639 13.3562 22.6388 13.3567C22.6384 13.3577 22.638 13.3587 22.6376 13.3597C22.6368 13.3616 22.6361 13.3634 22.6353 13.3652C22.6339 13.3687 22.6325 13.372 22.6312 13.375C22.6286 13.381 22.6263 13.386 22.6245 13.39C22.6207 13.3981 22.6183 13.4027 22.6174 13.4042C22.6158 13.4072 22.6196 13.3997 22.6301 13.3859C22.6506 13.359 22.6951 13.3094 22.7764 13.2632L21.788 11.5245ZM20.839 12.4937L20.7974 12.568L22.5424 13.5452L22.584 13.4709L20.839 12.4937ZM20.7111 12.7725L20.6873 12.8528L22.6049 13.421L22.6287 13.3407L20.7111 12.7725ZM21.6461 13.1369C20.6909 12.841 20.6909 12.841 20.6909 12.8409C20.6909 12.8409 20.691 12.8409 20.691 12.8408C20.691 12.8408 20.691 12.8408 20.691 12.8408C20.691 12.8409 20.6909 12.841 20.6908 12.8413C20.6907 12.8418 20.6904 12.8427 20.69 12.844C20.6891 12.8467 20.6878 12.8511 20.6859 12.857C20.6822 12.8689 20.6764 12.8871 20.6688 12.9109C20.6535 12.9586 20.6307 13.0289 20.6014 13.1165C20.5427 13.2921 20.4588 13.5356 20.358 13.806C20.1488 14.3675 19.8939 14.9712 19.6626 15.3464L21.3649 16.3961C21.7072 15.841 22.0186 15.0775 22.2321 14.5044C22.3427 14.2075 22.4343 13.9418 22.4984 13.7501C22.5304 13.6541 22.5558 13.5761 22.5733 13.5215C22.582 13.4942 22.5888 13.4728 22.5936 13.4577C22.5959 13.4502 22.5978 13.4443 22.5991 13.4402C22.5997 13.4381 22.6002 13.4364 22.6006 13.4351C22.6008 13.4345 22.601 13.434 22.6011 13.4336C22.6012 13.4334 22.6012 13.4332 22.6013 13.4331C22.6013 13.433 22.6013 13.4329 22.6013 13.4329C22.6014 13.4328 22.6014 13.4327 21.6461 13.1369ZM19.6627 15.3463C19.3516 15.8505 19.0938 16.1805 18.9054 16.3871C18.7085 16.6031 18.6097 16.66 18.6253 16.6513L19.6025 18.3963C20.0441 18.149 20.6558 17.5458 21.3649 16.3963L19.6627 15.3463ZM18.6177 16.6555C18.6082 16.661 18.5987 16.6665 18.5889 16.6724C18.5838 16.6754 18.5798 16.6779 18.5773 16.6794C18.577 16.6796 18.5768 16.6797 18.5767 16.6798C18.5766 16.6799 18.5766 16.6799 18.5765 16.6799C18.5765 16.6799 18.5765 16.68 18.5764 16.68C18.5763 16.68 18.5767 16.6798 18.5772 16.6795C18.5781 16.6789 18.581 16.6771 18.5849 16.6749C18.5889 16.6724 18.594 16.6694 18.5999 16.666C18.6058 16.6626 18.6116 16.6594 18.6171 16.6564C18.6275 16.6506 18.6357 16.6464 18.6391 16.6447C18.6424 16.643 18.6446 16.6419 18.6438 16.6422C18.6433 16.6425 18.6424 16.643 18.6399 16.6442L19.5344 18.4331C19.5363 18.4321 19.5389 18.4308 19.5412 18.4296C19.5433 18.4286 19.5477 18.4264 19.5527 18.4238C19.5579 18.4211 19.5673 18.4163 19.5788 18.4099C19.592 18.4027 19.6037 18.3959 19.6139 18.3898C19.6204 18.3859 19.6282 18.3811 19.6246 18.3833C19.6234 18.384 19.6209 18.3855 19.6179 18.3874C19.6123 18.3907 19.6091 18.3925 19.61 18.392L18.6177 16.6555ZM20.0465 17.2565C20.0335 17.2125 20.0347 17.2173 20.0326 17.2087C20.032 17.2064 20.0296 17.1962 20.0269 17.1735L18.0403 17.4045C18.0661 17.6259 18.113 17.7705 18.1278 17.8208L20.0465 17.2565ZM20.0284 17.1864C20.0056 16.9661 20.0217 16.6728 20.0217 16.1982H18.0217C18.0217 16.5142 18.0022 17.0352 18.0389 17.3915L20.0284 17.1864ZM20.0217 16.1982C20.0217 15.6679 20.0416 15.2615 20.0515 14.8468C20.0611 14.4498 20.0612 14.0493 20.0028 13.6404L18.0229 13.9233C18.0566 14.1593 18.0612 14.4216 18.0521 14.7989C18.0435 15.1584 18.0217 15.6377 18.0217 16.1982H20.0217ZM20.0033 13.6443C19.9427 13.2075 19.7735 12.6175 19.3103 12.1334L17.8653 13.5162C17.9311 13.585 17.9938 13.7142 18.0223 13.9194L20.0033 13.6443ZM19.3103 12.1334C19.3072 12.1302 19.314 12.137 19.3263 12.1523C19.3359 12.1642 19.3668 12.2031 19.4001 12.2631C19.4173 12.2941 19.4423 12.3434 19.4648 12.4078C19.4863 12.4693 19.5153 12.5725 19.5186 12.7042C19.5219 12.8411 19.4972 13.0286 19.3885 13.2188C19.2765 13.4149 19.1151 13.5441 18.9598 13.6193C18.8152 13.6892 18.6848 13.709 18.6032 13.7149C18.5189 13.721 18.4501 13.7149 18.4057 13.7089C18.3195 13.6973 18.2563 13.6764 18.2284 13.6665C18.1689 13.6455 18.1302 13.624 18.1129 13.6139C18.0944 13.6031 18.0612 13.5824 18.0196 13.547C17.9994 13.5297 17.9596 13.4942 17.9153 13.4406C17.8925 13.4131 17.861 13.3717 17.8291 13.3173C17.7984 13.265 17.7555 13.1806 17.7266 13.0687C17.6972 12.9549 17.6767 12.7895 17.7209 12.5988C17.7675 12.3979 17.8729 12.227 18.0084 12.1001C18.1348 11.9816 18.2656 11.921 18.3549 11.8897C18.4452 11.8581 18.5221 11.8462 18.5714 11.8411C18.6663 11.8312 18.7369 11.8388 18.76 11.8416C18.7897 11.8451 18.8074 11.8492 18.8083 11.8494L18.3673 13.8002C18.4109 13.8101 18.464 13.8204 18.5225 13.8274C18.5743 13.8336 18.6672 13.8419 18.7788 13.8303C18.8364 13.8243 18.9202 13.8109 19.0161 13.7773C19.1111 13.744 19.2462 13.681 19.3758 13.5596C19.5144 13.4297 19.6217 13.2555 19.6692 13.0508C19.7143 12.8562 19.6936 12.6867 19.663 12.5684C19.6329 12.452 19.5879 12.3628 19.5542 12.3054C19.5193 12.2459 19.484 12.1992 19.4566 12.1661C19.4032 12.1015 19.3513 12.0542 19.3169 12.0248C19.2469 11.9652 19.1771 11.9193 19.1207 11.8864C19.0655 11.8542 18.9877 11.8137 18.895 11.7809C18.8505 11.7652 18.7721 11.7402 18.6732 11.7269C18.6224 11.72 18.5478 11.7136 18.4584 11.7201C18.3717 11.7264 18.2369 11.7472 18.0888 11.8189C17.9298 11.8958 17.7657 12.0275 17.6519 12.2267C17.5414 12.4202 17.5157 12.6116 17.5192 12.7534C17.5225 12.8899 17.5527 12.9988 17.5765 13.0669C17.6013 13.1379 17.6297 13.1946 17.6517 13.2341C17.6944 13.3111 17.7397 13.3708 17.7696 13.4079C17.8023 13.4484 17.8354 13.4849 17.8653 13.5162L19.3103 12.1334ZM18.8091 11.8496C18.6618 11.8162 18.5108 11.7957 18.3457 11.8077C18.2889 11.8118 18.2128 11.8231 18.2404 11.8195C18.2565 11.8173 18.2994 11.8124 18.3531 11.814C18.4436 11.8168 18.4848 11.8363 18.4098 11.8138C18.3418 11.7934 18.2183 11.7511 17.9986 11.6666L17.2808 13.5334C17.5163 13.6239 17.6946 13.6872 17.8345 13.7292C17.9673 13.7691 18.1224 13.8079 18.2918 13.8131C18.3851 13.816 18.4588 13.808 18.5045 13.8019C18.5615 13.7943 18.5137 13.8008 18.4912 13.8024C18.3948 13.8094 18.3369 13.7933 18.3665 13.8L18.8091 11.8496ZM17.6499 11.6001C17.0487 11.5939 16.5117 11.5941 16.1082 11.5835C15.9042 11.5781 15.7692 11.5706 15.6947 11.5625C15.6491 11.5575 15.673 11.557 15.7276 11.5729C15.7477 11.5787 15.8474 11.6073 15.9627 11.6833C16.0566 11.7452 16.4 12.002 16.4 12.5008H14.4C14.4 13.0121 14.7518 13.2805 14.8619 13.3531C14.9935 13.4398 15.1173 13.4783 15.169 13.4933C15.2868 13.5276 15.4036 13.5425 15.4767 13.5505C15.6397 13.5684 15.8456 13.5773 16.0555 13.5828C16.4798 13.594 17.0626 13.5942 17.6295 13.5999L17.6499 11.6001ZM14.6684 13.1826L14.9703 13.5066L16.4335 12.1431L16.1316 11.8191L14.6684 13.1826ZM15.279 11.9186C15.22 11.9462 15.2216 11.9431 15.2369 11.9386C15.2582 11.9322 15.2627 11.9345 15.2218 11.9382C15.1021 11.9488 14.8905 11.95 14.35 11.95V13.95C14.8358 13.95 15.1664 13.951 15.3992 13.9303C15.7243 13.9013 15.9207 13.8262 16.1248 13.731L15.279 11.9186ZM13.6318 12.2542C13.7591 12.1228 13.8887 12.0647 13.9311 12.0466C13.9856 12.0233 14.0264 12.0128 14.038 12.0099C14.0603 12.0043 14.0627 12.0054 14.0212 12.0112C13.996 12.0146 13.7783 12.0403 13.6665 12.0576C13.5284 12.079 13.309 12.1186 13.0974 12.2072C12.9214 12.2809 12.469 12.5061 12.3304 13.0552L14.2696 13.5448C14.2201 13.7408 14.1119 13.8738 14.0272 13.949C13.9496 14.0178 13.8843 14.0459 13.87 14.0519C13.8482 14.0611 13.8691 14.0501 13.9724 14.0341C14.0163 14.0273 14.0637 14.0212 14.119 14.0144C14.1681 14.0084 14.2361 14.0005 14.2947 13.9924C14.3499 13.9847 14.4368 13.9719 14.5252 13.9497C14.5698 13.9385 14.6391 13.919 14.7166 13.8859C14.7821 13.8579 14.9294 13.7891 15.0682 13.6458L13.6318 12.2542ZM12.3256 13.0751C12.3107 13.1399 12.2562 13.3563 12.2534 13.6051C12.2505 13.8634 12.3006 14.2358 12.5567 14.5847L14.1689 13.4011C14.2526 13.5151 14.2534 13.6184 14.2533 13.6276C14.2532 13.6334 14.2528 13.6288 14.2561 13.6098C14.2597 13.5889 14.2642 13.5692 14.2744 13.5249L12.3256 13.0751ZM12.5616 14.5912C12.5915 14.6313 12.5891 14.6316 12.576 14.6087C12.5726 14.6029 12.5693 14.5969 12.5663 14.5911C12.5634 14.5856 12.5614 14.5816 12.5618 14.5824C12.5712 14.6014 12.5536 14.5659 12.5645 14.5878C12.566 14.5909 12.5687 14.5964 12.572 14.6029C12.5789 14.6163 12.5895 14.6368 12.6036 14.661C12.6691 14.7741 12.7419 14.8545 12.7875 14.9027C12.8313 14.9489 12.8882 15.0045 12.9554 15.0694L14.3446 13.6306C14.2741 13.5626 14.2482 13.5365 14.2397 13.5275C14.2331 13.5205 14.2842 13.5722 14.3342 13.6586C14.3511 13.6877 14.3659 13.7187 14.3544 13.6956C14.346 13.6786 14.3312 13.6491 14.3099 13.6119C14.2695 13.5417 14.2217 13.4718 14.164 13.3945L12.5616 14.5912ZM12.9554 15.0694C13.0576 15.168 13.0929 15.2124 13.1203 15.2453C13.1327 15.2602 13.193 15.3348 13.2733 15.4064C13.3708 15.4934 13.4678 15.5519 13.5528 15.5944L14.4472 13.8056C14.4597 13.8118 14.4835 13.8244 14.5133 13.8439C14.5449 13.8645 14.5757 13.8881 14.6045 13.9138C14.6318 13.9382 14.6505 13.9584 14.6583 13.9671C14.6642 13.9736 14.6666 13.9767 14.6559 13.9639C14.637 13.9412 14.5992 13.8955 14.5457 13.8366C14.4925 13.7781 14.4277 13.7108 14.3446 13.6306L12.9554 15.0694ZM13.5625 15.5992C13.5835 15.6094 13.6121 15.623 13.6435 15.6362C13.6584 15.6424 13.6857 15.6536 13.7196 15.665C13.7367 15.6708 13.7644 15.6796 13.799 15.6883C13.8262 15.6951 13.896 15.7117 13.9868 15.7168C14.0326 15.7194 14.114 15.721 14.2134 15.7038C14.3055 15.688 14.4857 15.6439 14.6647 15.5022C14.7592 15.4274 14.849 15.3283 14.9184 15.2034C14.9878 15.0783 15.0246 14.949 15.038 14.8277C15.0634 14.5976 15.0031 14.4192 14.9663 14.3315C14.9267 14.2369 14.8808 14.1683 14.8535 14.1306C14.8238 14.0897 14.7963 14.0583 14.7773 14.0377C14.7401 13.9975 14.7072 13.9686 14.6896 13.9537C14.6534 13.9228 14.6222 13.9008 14.6074 13.8906C14.5894 13.8781 14.5734 13.8678 14.5606 13.8599C14.5356 13.8443 14.5093 13.8292 14.4826 13.8152C14.4609 13.8038 14.4144 13.7802 14.3546 13.7579C14.3282 13.7481 14.2641 13.7251 14.1796 13.7097C14.1373 13.702 14.0611 13.6908 13.9655 13.6939C13.8806 13.6968 13.6962 13.713 13.4978 13.8275C13.3916 13.8889 13.2824 13.9781 13.1915 14.1018C13.1001 14.2262 13.045 14.3612 13.0181 14.4909C12.9674 14.7346 13.0205 14.9297 13.0508 15.0185C13.0844 15.1169 13.1263 15.1892 13.1503 15.2277C13.1769 15.2701 13.2019 15.3031 13.2191 15.3247L14.7809 14.0753C14.7967 14.095 14.8205 14.1264 14.8461 14.1673C14.8693 14.2044 14.9105 14.2755 14.9438 14.3729C14.9737 14.4607 15.0267 14.6549 14.9762 14.8979C14.9493 15.0273 14.8944 15.162 14.8031 15.2862C14.7124 15.4096 14.6035 15.4986 14.4975 15.5598C14.2997 15.6739 14.1162 15.69 14.0322 15.6928C13.9376 15.696 13.8626 15.6849 13.8216 15.6774C13.7398 15.6625 13.6789 15.6405 13.6562 15.632C13.6039 15.6125 13.5668 15.5933 13.5545 15.5869C13.5373 15.5778 13.5207 15.5683 13.504 15.558C13.4955 15.5527 13.4832 15.5448 13.4686 15.5347C13.4571 15.5267 13.4287 15.5068 13.3945 15.4777C13.378 15.4636 13.3459 15.4355 13.3093 15.396C13.2906 15.3758 13.2634 15.3447 13.2339 15.304C13.2068 15.2667 13.161 15.1983 13.1215 15.1039C13.0849 15.0165 13.0247 14.8383 13.05 14.6083C13.0634 14.4872 13.1002 14.3579 13.1696 14.2329C13.2389 14.108 13.3287 14.009 13.423 13.9343C13.6019 13.7927 13.782 13.7487 13.8737 13.7329C13.9729 13.7158 14.0539 13.7174 14.0993 13.72C14.1893 13.725 14.2579 13.7415 14.2837 13.7479C14.3169 13.7562 14.3429 13.7646 14.358 13.7696C14.3878 13.7797 14.4097 13.7888 14.4177 13.7921C14.4352 13.7995 14.444 13.8039 14.4375 13.8008L13.5625 15.5992ZM13 14.7C13 14.6057 13.0291 14.4331 13.1605 14.2669C13.2715 14.1265 13.3978 14.0711 13.3771 14.0815C13.371 14.0846 13.3716 14.0842 13.3527 14.0935C13.3395 14.1 13.3155 14.1119 13.2885 14.1265C13.2384 14.1535 13.1379 14.2108 13.0347 14.3057C12.9224 14.4091 12.8081 14.5558 12.7374 14.7523C12.6681 14.9447 12.6613 15.1278 12.6783 15.2771L14.6654 15.0507C14.6758 15.1413 14.6742 15.2768 14.6192 15.4295C14.5628 15.5863 14.4718 15.7012 14.389 15.7774C14.3153 15.8452 14.2505 15.88 14.2394 15.8859C14.2319 15.89 14.2282 15.8917 14.2357 15.888C14.2376 15.8871 14.2594 15.8764 14.2747 15.8688C14.3394 15.8363 14.5527 15.7308 14.7294 15.5073C14.8214 15.391 14.8925 15.2576 14.9386 15.1112C14.9838 14.9678 15 14.828 15 14.7H13ZM12.6798 15.2895C12.6896 15.3674 12.6938 15.4396 12.6953 15.4922C12.6961 15.5179 12.6962 15.5374 12.6961 15.5486C12.6961 15.5542 12.696 15.5577 12.696 15.5587C12.696 15.5592 12.696 15.5591 12.696 15.5584C12.696 15.558 12.6961 15.5575 12.6961 15.5568C12.6961 15.5564 12.6961 15.5561 12.6961 15.5556C12.6961 15.5554 12.6961 15.5552 12.6961 15.5549C12.6961 15.5548 12.6961 15.5547 12.6961 15.5546C12.6961 15.5545 12.6961 15.5544 12.6961 15.5544C12.6962 15.5543 12.6962 15.5542 13.6957 15.5859C14.6951 15.6177 14.6952 15.6176 14.6952 15.6175C14.6952 15.6174 14.6952 15.6173 14.6952 15.6173C14.6952 15.6171 14.6952 15.617 14.6952 15.6169C14.6952 15.6166 14.6952 15.6163 14.6952 15.616C14.6952 15.6154 14.6952 15.6147 14.6953 15.614C14.6953 15.6126 14.6953 15.611 14.6954 15.6092C14.6955 15.6056 14.6956 15.6012 14.6957 15.5962C14.6959 15.586 14.696 15.573 14.6961 15.5574C14.6962 15.5262 14.696 15.4842 14.6945 15.4337C14.6916 15.334 14.6838 15.1952 14.664 15.0383L12.6798 15.2895ZM12.6979 15.5194L12.6949 15.564L14.6905 15.697L14.6934 15.6525L12.6979 15.5194ZM12.7004 15.7546L12.7063 15.8021L14.6909 15.554L14.685 15.5065L12.7004 15.7546ZM13.6986 15.6781C12.7028 15.7696 12.7028 15.7696 12.7028 15.7695C12.7028 15.7695 12.7028 15.7694 12.7028 15.7694C12.7028 15.7693 12.7028 15.7692 12.7028 15.7692C12.7028 15.769 12.7028 15.7689 12.7028 15.7689C12.7027 15.7687 12.7027 15.7687 12.7028 15.7688C12.7028 15.7691 12.7028 15.7698 12.7029 15.7709C12.7031 15.7732 12.7035 15.7774 12.704 15.7833C12.7049 15.795 12.7064 15.8137 12.7082 15.8381C12.7116 15.8872 12.7162 15.9593 12.72 16.0468C12.7278 16.2244 12.7319 16.4531 12.7207 16.677L14.7182 16.7775C14.7337 16.4694 14.7274 16.1735 14.7181 15.9596C14.7134 15.8512 14.7077 15.7607 14.7031 15.6962C14.7008 15.6639 14.6988 15.638 14.6973 15.6194C14.6965 15.6101 14.6958 15.6026 14.6954 15.5971C14.6951 15.5943 14.6949 15.5921 14.6948 15.5903C14.6947 15.5894 14.6946 15.5887 14.6946 15.588C14.6945 15.5877 14.6945 15.5874 14.6945 15.5872C14.6945 15.587 14.6945 15.5869 14.6945 15.5868C14.6944 15.5868 14.6944 15.5867 14.6944 15.5867C14.6944 15.5866 14.6944 15.5865 13.6986 15.6781ZM12.7204 16.6828C12.7097 16.923 12.6813 17.1077 12.6655 17.1656L14.595 17.6918C14.6684 17.4227 14.7053 17.0664 14.7184 16.7716L12.7204 16.6828ZM12.6816 17.1125C12.6848 17.1027 12.6949 17.0726 12.7115 17.0346C12.7206 17.0137 12.7326 16.9881 12.7479 16.9597C12.764 16.93 12.7802 16.9036 12.7954 16.8808C12.8079 16.862 12.8199 16.8457 12.8166 16.8502C12.8156 16.8517 12.8057 16.8652 12.7941 16.8826C12.7676 16.9224 12.7466 16.96 12.7299 16.9934L14.5188 17.8877C14.5036 17.9182 14.4837 17.9539 14.4581 17.9923C14.4469 18.009 14.4375 18.0219 14.4368 18.0229C14.434 18.0268 14.4463 18.01 14.4592 17.9907C14.4748 17.9673 14.4913 17.9403 14.5078 17.9099C14.5235 17.8807 14.5359 17.8543 14.5455 17.8323C14.563 17.7921 14.5742 17.759 14.579 17.7449L12.6816 17.1125ZM14.1908 16.6165C14.213 16.6318 14.1267 16.57 13.9378 16.3379C13.7627 16.1228 13.5273 15.7957 13.2434 15.3267L11.5324 16.3624C11.8548 16.8949 12.1425 17.3005 12.3866 17.6003C12.6167 17.8831 12.8454 18.1186 13.0578 18.2646L14.1908 16.6165ZM13.2437 15.3272C13.0143 14.9477 12.7701 14.3734 12.5729 13.8515C12.4775 13.599 12.3985 13.3735 12.3434 13.2114C12.316 13.1305 12.2947 13.0658 12.2804 13.0221C12.2733 13.0002 12.2679 12.9836 12.2644 12.9727C12.2627 12.9673 12.2615 12.9634 12.2607 12.961C12.2603 12.9598 12.2601 12.959 12.2599 12.9585C12.2599 12.9583 12.2598 12.9582 12.2598 12.9582C12.2598 12.9582 12.2598 12.9582 12.2598 12.9582C12.2598 12.9583 12.2598 12.9583 12.2598 12.9583C12.2599 12.9584 12.2599 12.9584 11.306 13.2587C10.3522 13.5591 10.3522 13.5591 10.3523 13.5592C10.3523 13.5593 10.3523 13.5593 10.3523 13.5594C10.3524 13.5596 10.3524 13.5597 10.3525 13.5599C10.3526 13.5603 10.3527 13.5608 10.3529 13.5614C10.3533 13.5625 10.3538 13.5641 10.3544 13.5661C10.3557 13.57 10.3574 13.5755 10.3597 13.5825C10.3641 13.5965 10.3706 13.6165 10.3788 13.6418C10.3954 13.6925 10.4193 13.7649 10.4496 13.8542C10.5101 14.0325 10.5968 14.2801 10.702 14.5585C10.906 15.0984 11.2028 15.817 11.5321 16.3618L13.2437 15.3272ZM12.2618 12.9646L12.2499 12.926L10.3384 13.5142L10.3503 13.5529L12.2618 12.9646ZM12.2172 12.8355L12.2024 12.7998L10.3562 13.569L10.3711 13.6047L12.2172 12.8355ZM11.2793 13.1844C12.2756 13.2708 12.2759 13.2666 12.2762 13.2625C12.2764 13.2611 12.2767 13.257 12.2769 13.2543C12.2772 13.2488 12.2776 13.2433 12.2779 13.2379C12.2784 13.227 12.2788 13.2163 12.2791 13.2057C12.2795 13.1845 12.2793 13.1639 12.2785 13.1439C12.2769 13.1039 12.2729 13.0662 12.2676 13.0313C12.2568 12.9619 12.2401 12.9015 12.2226 12.8514C12.1885 12.754 12.1455 12.6785 12.1126 12.6277C12.049 12.5296 11.9776 12.4541 11.9247 12.4027C11.8156 12.2966 11.6584 12.1713 11.4265 12.0077L10.2735 13.6419C10.4756 13.7845 10.533 13.839 10.5301 13.8362C10.5272 13.8334 10.5164 13.8228 10.5011 13.8051C10.4864 13.7881 10.4615 13.7576 10.4339 13.7149C10.4073 13.6739 10.3673 13.6049 10.3347 13.5117C10.3179 13.4637 10.3015 13.4047 10.2909 13.3362C10.2856 13.3018 10.2817 13.2645 10.2801 13.2247C10.2793 13.2048 10.2791 13.1842 10.2795 13.1631C10.2798 13.1525 10.2801 13.1418 10.2807 13.131C10.281 13.1256 10.2814 13.1201 10.2817 13.1146C10.2819 13.1119 10.2822 13.1078 10.2823 13.1064C10.2827 13.1022 10.283 13.0981 11.2793 13.1844ZM11.4227 12.005C11.0442 11.7406 10.6494 11.6472 10.3774 11.6135C10.2375 11.5962 10.1169 11.5931 10.0274 11.5947C9.98218 11.5954 9.94378 11.5974 9.91346 11.5996C9.89827 11.6006 9.885 11.6018 9.87383 11.6028C9.86823 11.6034 9.86315 11.6039 9.8586 11.6043C9.85633 11.6046 9.85418 11.6048 9.85217 11.605C9.85117 11.6052 9.8502 11.6053 9.84926 11.6054C9.84879 11.6054 9.84833 11.6055 9.84788 11.6055C9.84765 11.6056 9.84732 11.6056 9.84721 11.6056C9.84688 11.6057 9.84655 11.6057 9.96264 12.5989C10.0787 13.5922 10.0784 13.5922 10.0781 13.5922C10.078 13.5923 10.0776 13.5923 10.0774 13.5923C10.077 13.5924 10.0766 13.5924 10.0762 13.5925C10.0754 13.5926 10.0746 13.5926 10.0738 13.5927C10.0723 13.5929 10.0708 13.5931 10.0695 13.5932C10.0668 13.5935 10.0645 13.5937 10.0625 13.5939C10.0586 13.5943 10.0561 13.5945 10.0549 13.5946C10.0526 13.5947 10.0551 13.5945 10.0615 13.5944C10.0752 13.5941 10.1007 13.5946 10.1321 13.5984C10.2027 13.6072 10.2516 13.6266 10.2773 13.6446L11.4227 12.005ZM9.48378 14.2487C9.59104 14.2844 9.70367 14.3023 9.81748 14.3012C9.92282 14.3001 10.004 14.2826 10.0312 14.2765C10.1036 14.2604 9.96069 14.299 9.82219 14.298C9.66822 14.2968 9.54707 14.2589 9.47161 14.2275C9.40235 14.1986 9.35829 14.1695 9.34768 14.1624C9.32845 14.1495 9.3478 14.1603 9.4314 14.2358C9.50908 14.3059 9.62443 14.4156 9.79289 14.5841L11.2071 13.1698C10.8658 12.8285 10.6363 12.6183 10.4608 12.5007C10.3862 12.4508 10.1582 12.3004 9.8373 12.298C9.68577 12.2969 9.53359 12.3383 9.59714 12.3242C9.67753 12.3063 9.87816 12.272 10.1162 12.3513L9.48378 14.2487ZM9.83752 14.626C9.90726 14.6877 9.96054 14.7345 9.99716 14.7663C10.0152 14.7821 10.0305 14.7953 10.0421 14.8052C10.0474 14.8097 10.0548 14.816 10.0623 14.8223C10.0649 14.8245 10.0741 14.8321 10.0856 14.8412C10.0885 14.8435 10.107 14.8581 10.1314 14.8752C10.1359 14.8784 10.1797 14.9097 10.2395 14.9412C10.247 14.9451 10.3651 15.0113 10.5296 15.0406C10.6437 15.0543 10.9674 15.0212 11.1644 14.9445C11.4103 14.7653 11.6762 14.2952 11.7052 14.0562C11.6963 13.923 11.6474 13.7213 11.6199 13.6521C11.6006 13.6109 11.5643 13.5444 11.5484 13.5186C11.5175 13.4702 11.4892 13.4352 11.4787 13.4225C11.4545 13.3929 11.4338 13.3712 11.4281 13.3652C11.4126 13.349 11.3999 13.3368 11.3967 13.3337C11.3874 13.3249 11.3796 13.3177 11.377 13.3153C11.37 13.3089 11.363 13.3026 11.3577 13.2979C11.3462 13.2876 11.331 13.2743 11.3129 13.2584C11.2763 13.2263 11.223 13.18 11.1532 13.1198L9.8468 14.6341C9.91378 14.6919 9.96305 14.7348 9.99484 14.7626C10.011 14.7768 10.0214 14.786 10.027 14.791C10.0303 14.7939 10.0296 14.7934 10.0269 14.7909C10.0264 14.7904 10.0202 14.7848 10.012 14.7769C10.0094 14.7744 9.99705 14.7626 9.98186 14.7467C9.97622 14.7408 9.95565 14.7192 9.93149 14.6897C9.92108 14.677 9.89278 14.6421 9.86191 14.5937C9.84603 14.5679 9.80975 14.5014 9.79041 14.4602C9.76291 14.3911 9.71407 14.1893 9.70517 14.0562C9.73416 13.8171 10 13.3471 10.2459 13.1679C10.443 13.0912 10.7667 13.0581 10.8807 13.0717C11.0452 13.1011 11.1633 13.1673 11.1707 13.1712C11.2305 13.2026 11.2741 13.2338 11.2785 13.2369C11.3027 13.2538 11.3208 13.2682 11.3231 13.27C11.3335 13.2782 11.3412 13.2846 11.3416 13.285C11.3449 13.2877 11.3459 13.2886 11.3426 13.2858C11.3371 13.2811 11.3267 13.2721 11.3106 13.2581C11.2788 13.2304 11.2295 13.1872 11.1625 13.1279L9.83752 14.626ZM9.54 14.1569C9.56418 14.2399 9.63669 14.4196 9.70093 14.5756C9.78009 14.7677 9.8906 15.0279 10.0237 15.3241C10.2871 15.9103 10.651 16.6648 11.044 17.3156L12.756 16.2816C12.4238 15.7316 12.0981 15.0609 11.848 14.5044C11.7244 14.2292 11.6221 13.9885 11.5502 13.8138C11.4633 13.6029 11.4462 13.5497 11.46 13.597L9.54 14.1569ZM11.0454 17.3179C11.7024 18.3991 12.0038 18.8727 12.7337 19.3742L13.8663 17.7258C13.5321 17.4962 13.4232 17.3796 12.7546 16.2793L11.0454 17.3179ZM12.8528 19.4444C13.4671 19.7516 14.0686 19.722 14.5056 19.4944C14.608 19.4411 14.7276 19.3629 14.8361 19.2505C14.8883 19.1965 14.9663 19.1055 15.03 18.9768C15.0821 18.8715 15.2018 18.5843 15.0941 18.2272C14.9622 17.7903 14.606 17.5949 14.3627 17.5355C14.1527 17.4842 13.9785 17.512 13.9007 17.5277C13.7299 17.5623 13.5919 17.6323 13.5099 17.6783L14.4901 19.4217C14.4856 19.4242 14.4694 19.4331 14.443 19.4441C14.4195 19.454 14.3688 19.4735 14.2975 19.488C14.2423 19.4992 14.0855 19.5266 13.888 19.4783C13.6572 19.422 13.3085 19.233 13.1794 18.8051C13.0743 18.4571 13.192 18.1816 13.2375 18.0898C13.2945 17.9745 13.3612 17.8988 13.3976 17.8611C13.4748 17.7812 13.5451 17.7397 13.5819 17.7205C13.7564 17.6296 13.8329 17.6984 13.7472 17.6556L12.8528 19.4444ZM13 18.55C13 18.6229 13.0049 18.7831 13.0752 18.9632C13.154 19.1652 13.3635 19.49 13.7953 19.5925C14.1586 19.6787 14.4395 19.5429 14.5361 19.4901C14.6542 19.4255 14.7386 19.3508 14.7835 19.3083C14.9453 19.1551 15.0824 18.9445 15.1643 18.8124C15.3392 18.5301 15.5771 18.081 15.664 17.7659L13.736 17.2341C13.7388 17.2241 13.719 17.2841 13.6538 17.416C13.5969 17.5313 13.5278 17.6563 13.4644 17.7587C13.3831 17.8898 13.3631 17.8989 13.4085 17.8559C13.4243 17.8409 13.4821 17.7869 13.5768 17.7352C13.65 17.6952 13.9105 17.5643 14.257 17.6465C14.6722 17.745 14.8685 18.057 14.9384 18.2362C14.9998 18.3935 15 18.5208 15 18.55H13ZM15.664 17.7659C15.7202 17.5621 15.7386 17.3057 15.7486 17.1296C15.7603 16.9209 15.7659 16.6834 15.7688 16.4583C15.7751 15.9663 15.7698 15.594 15.7765 15.4446L13.7785 15.3554C13.7703 15.5389 13.7739 16.0442 13.7689 16.4328C13.7662 16.6479 13.7611 16.8515 13.7517 17.0168C13.7406 17.2149 13.7273 17.2655 13.736 17.2341L15.664 17.7659ZM15.7764 15.4469C15.7912 15.1313 15.795 14.9458 15.7901 14.8238C15.7872 14.7539 15.7808 14.6784 15.764 14.5964C15.7595 14.574 15.7475 14.5237 15.7545 14.5536C15.7591 14.5737 15.7665 14.609 15.7714 14.6528L13.7836 14.8737C13.79 14.9308 13.7994 14.9763 13.8064 15.0064C13.8157 15.0463 13.8063 15.0058 13.8044 14.9962C13.7928 14.9396 13.7916 14.9013 13.7917 14.9048C13.7927 14.9295 13.7935 15.0356 13.7786 15.3531L15.7764 15.4469ZM15.7714 14.6528C15.7655 14.6001 15.7618 14.5665 15.7597 14.547C15.7592 14.5422 15.7588 14.5384 15.7585 14.5356C15.7581 14.5326 15.758 14.5311 15.7579 14.5308C15.7579 14.5305 15.758 14.5313 15.7581 14.5327C15.7582 14.5334 15.7583 14.5348 15.7585 14.5367C15.7586 14.5376 15.7587 14.539 15.7589 14.5406C15.759 14.5422 15.7593 14.5446 15.7595 14.5477C15.7597 14.5502 15.7602 14.5558 15.7607 14.5629C15.7609 14.5663 15.7614 14.5746 15.7617 14.5795C15.762 14.5866 15.7627 14.6055 15.7629 14.6172C15.763 14.6398 15.7589 14.7227 15.7516 14.7827C15.5883 15.1963 14.4692 15.5875 13.8635 15.0683C13.8283 14.9868 13.7932 14.8754 13.7868 14.8481C13.7839 14.8347 13.7797 14.8134 13.7783 14.8054C13.7774 14.8001 13.7759 14.7911 13.7753 14.7874C13.7748 14.7846 13.7741 14.7797 13.7738 14.7775C13.7731 14.7729 13.7726 14.7691 13.7723 14.7671C13.7717 14.7629 13.7713 14.7597 13.7711 14.7585C13.7708 14.7558 13.7706 14.7539 13.7706 14.7538C13.7705 14.7534 13.7705 14.7534 13.7706 14.7538C13.7707 14.7547 13.7709 14.7564 13.7712 14.7589C13.7717 14.764 13.7725 14.771 13.7735 14.7797C13.7755 14.7971 13.7781 14.8196 13.7807 14.8431C13.7834 14.8665 13.7861 14.8904 13.7883 14.9106C13.7894 14.9207 13.7904 14.9296 13.7913 14.937C13.7921 14.9447 13.7927 14.9498 13.7929 14.9525C13.793 14.9531 13.793 14.9533 13.793 14.9532C13.793 14.9531 13.793 14.9528 13.793 14.9525C13.7929 14.9521 13.7928 14.9514 13.7928 14.9505C13.7927 14.9497 13.7925 14.9481 13.7923 14.9461C13.7922 14.945 13.7921 14.9436 13.7919 14.9418C13.7918 14.9401 13.7915 14.9375 13.7913 14.9343C13.791 14.9315 13.7906 14.9259 13.7901 14.9187C13.7899 14.9153 13.7894 14.9072 13.7891 14.9025C13.7888 14.8958 13.7882 14.8787 13.788 14.8683C13.7879 14.8501 13.7897 14.7915 13.7929 14.7513C13.8198 14.6012 14.5715 13.8755 15.4537 14.1057C15.6128 14.2867 15.7406 14.5482 15.7548 14.5968C15.76 14.6173 15.7671 14.6493 15.7694 14.6608C15.7708 14.6679 15.773 14.6801 15.7738 14.6851C15.7745 14.6887 15.7755 14.6951 15.7759 14.6979C15.7768 14.7038 15.7775 14.7085 15.7779 14.711C15.7786 14.716 15.7791 14.72 15.7793 14.7214C15.7797 14.7247 15.78 14.727 15.78 14.7271C15.7801 14.7278 15.78 14.7273 15.7797 14.7247C15.7792 14.7198 15.7782 14.7115 15.7767 14.6988C15.7752 14.6862 15.7734 14.6698 15.771 14.649L13.7841 14.8775C13.7865 14.8987 13.7885 14.9157 13.79 14.9291C13.7916 14.9424 13.7928 14.9526 13.7936 14.96C13.794 14.9635 13.7945 14.9676 13.795 14.9714C13.7952 14.9731 13.7956 14.9765 13.7962 14.9806C13.7964 14.9825 13.797 14.9868 13.7977 14.9921C13.7981 14.9947 13.7988 14.9995 13.7997 15.0055C13.8002 15.0083 13.8012 15.0148 13.8018 15.0184C13.8027 15.0234 13.8049 15.0356 13.8063 15.0428C13.8086 15.0543 13.8157 15.0863 13.8209 15.1068C13.8351 15.1554 13.9629 15.417 14.122 15.5979C15.0042 15.8281 15.7559 15.1024 15.7828 14.9523C15.786 14.9121 15.7879 14.8535 15.7877 14.8353C15.7875 14.8249 15.7869 14.8077 15.7866 14.801C15.7863 14.7963 15.7858 14.7882 15.7856 14.7847C15.7851 14.7775 15.7846 14.7717 15.7844 14.7688C15.7841 14.7655 15.7839 14.7628 15.7837 14.7609C15.7836 14.759 15.7834 14.7574 15.7833 14.7561C15.783 14.7537 15.7828 14.7517 15.7827 14.7503C15.7824 14.7476 15.7822 14.7453 15.782 14.7437C15.7818 14.7419 15.7817 14.7402 15.7815 14.7387C15.7809 14.7328 15.78 14.7251 15.7791 14.7171C15.7782 14.7087 15.7771 14.699 15.7759 14.6885C15.7736 14.6675 15.7708 14.6427 15.7681 14.6188C15.7654 14.5948 15.7627 14.5714 15.7606 14.5529C15.7596 14.5437 15.7586 14.5355 15.7579 14.5288C15.7575 14.5256 15.7571 14.5223 15.7568 14.5193C15.7566 14.5178 15.7564 14.5161 15.7562 14.5143C15.756 14.5128 15.7556 14.5098 15.7552 14.5063C15.755 14.5047 15.7545 14.5012 15.7539 14.4968C15.7536 14.4946 15.7531 14.4908 15.7524 14.486C15.7521 14.4838 15.7513 14.4788 15.7509 14.476C15.7503 14.4722 15.7488 14.4632 15.7479 14.4579C15.7464 14.45 15.7422 14.4285 15.7393 14.4151C15.7329 14.3878 15.6978 14.2764 15.6626 14.1949C15.0569 13.6758 13.9378 14.0669 13.7745 14.4805C13.7672 14.5405 13.7631 14.6235 13.7632 14.6461C13.7634 14.6578 13.7641 14.6767 13.7644 14.6839C13.7647 14.6887 13.7652 14.6971 13.7654 14.7006C13.7659 14.7077 13.7664 14.7134 13.7666 14.7161C13.7669 14.7192 13.7671 14.7218 13.7673 14.7235C13.7674 14.7253 13.7676 14.7268 13.7677 14.728C13.7679 14.7302 13.7681 14.7321 13.7682 14.7334C13.7685 14.7359 13.7687 14.7382 13.7689 14.7398C13.7692 14.7432 13.7696 14.7469 13.7701 14.7507C13.7705 14.7547 13.771 14.7593 13.7716 14.7646C13.7739 14.7858 13.7778 14.8208 13.7836 14.8737L15.7714 14.6528ZM15.771 14.649C15.7516 14.481 15.7381 14.3637 15.7362 14.347C15.7361 14.346 15.736 14.3453 15.736 14.3451C15.736 14.345 15.736 14.345 15.736 14.345C15.736 14.345 15.736 14.345 15.736 14.345C15.736 14.345 14.8568 15.4527 13.7491 14.5736C13.7491 14.5736 13.7491 14.5736 13.7491 14.5736C13.7491 14.5736 13.7491 14.5736 13.7491 14.5736C13.7491 14.5737 13.7491 14.5739 13.7492 14.5742C13.7493 14.5753 13.7496 14.5781 13.7502 14.5827C13.7512 14.5919 13.7531 14.6082 13.7559 14.6323C13.7614 14.6805 13.7706 14.7602 13.7841 14.8775L15.771 14.649C15.7575 14.5316 15.7483 14.452 15.7427 14.4037C15.74 14.3796 15.7381 14.3633 15.737 14.3542C15.7365 14.3496 15.7362 14.3467 15.7361 14.3456C15.736 14.3453 15.736 14.3451 15.736 14.345C15.736 14.345 15.736 14.345 15.736 14.345C15.736 14.345 15.736 14.3449 15.736 14.3449C14.6282 13.4658 13.7491 14.5735 13.7491 14.5735C13.7491 14.5735 13.7491 14.5736 13.7491 14.5737C13.7491 14.5739 13.7492 14.5745 13.7493 14.5756C13.7512 14.5923 13.7647 14.7096 13.7841 14.8775L15.771 14.649ZM15.7775 14.7632C15.7775 14.6571 15.7836 14.5825 15.7909 14.5326C15.7981 14.4826 15.8052 14.4665 15.8026 14.4731C15.7994 14.4815 15.7853 14.5142 15.7513 14.5558C15.716 14.5989 15.6721 14.6357 15.6259 14.6627C15.5821 14.6883 15.549 14.6977 15.5393 14.7001C15.5313 14.7021 15.5395 14.6993 15.5739 14.6967C15.6084 14.6941 15.6547 14.6928 15.7228 14.693C15.7562 14.6931 15.7916 14.6935 15.8319 14.694C15.8707 14.6946 15.9156 14.6952 15.9605 14.6956L15.9782 12.6957C15.8493 12.6945 15.6234 12.6875 15.4256 12.7022C15.2175 12.7177 14.9143 12.7622 14.6172 12.9357C13.9201 13.3428 13.7775 14.1044 13.7775 14.7632H15.7775ZM15.959 14.6956C16.3844 14.7 16.5921 14.711 16.7236 14.7252C16.8387 14.7376 16.9004 14.7522 17.0737 14.792L17.5221 12.843C17.3595 12.8056 17.1879 12.7637 16.9382 12.7367C16.7049 12.7115 16.4162 12.7002 15.9797 12.6957L15.959 14.6956ZM17.0776 14.7929C17.1203 14.8026 17.1029 14.8025 17.0515 14.779C17.0232 14.766 16.9886 14.7478 16.9503 14.7233C16.9483 14.7221 16.9466 14.721 16.9452 14.72C16.9439 14.7192 16.9428 14.7185 16.9429 14.7185C16.9429 14.7185 16.9429 14.7186 16.943 14.7186C16.943 14.7186 16.9431 14.7187 16.9432 14.7187C16.9434 14.7189 16.9437 14.7191 16.9441 14.7193C16.9448 14.7198 16.9467 14.721 16.9492 14.7226C16.9512 14.7239 16.9569 14.7276 16.9641 14.7321C16.9667 14.7337 16.9897 14.748 17.0198 14.7641C17.0285 14.7687 17.0772 14.7951 17.1431 14.8195C17.1847 14.8338 17.3069 14.8647 17.3882 14.8764C17.5707 14.8784 18.0977 14.6761 18.3538 14.386C18.473 14.067 18.4443 13.5819 18.3894 13.4438C18.3566 13.3821 18.2973 13.2911 18.2738 13.2602C18.2341 13.2102 18.1982 13.1753 18.1908 13.1681C18.1678 13.1454 18.1484 13.1287 18.146 13.1266C18.1398 13.1212 18.1349 13.1171 18.1332 13.1157C18.13 13.113 18.1266 13.1102 18.1281 13.1115C18.1283 13.1116 18.1295 13.1127 18.1311 13.114C18.1477 13.1278 18.169 13.1466 18.1923 13.1699L16.778 14.584C16.8057 14.6118 16.8303 14.6333 16.8484 14.6485C16.8502 14.65 16.8516 14.6511 16.8519 14.6514C16.8536 14.6528 16.8503 14.6501 16.8472 14.6475C16.8456 14.6461 16.8407 14.642 16.8345 14.6366C16.8322 14.6346 16.8128 14.6179 16.7897 14.5952C16.7824 14.588 16.7465 14.5531 16.7068 14.5031C16.6833 14.4723 16.624 14.3812 16.5912 14.3195C16.5363 14.1814 16.5076 13.6963 16.6268 13.3773C16.8829 13.0872 17.4099 12.8849 17.5924 12.8869C17.6737 12.8986 17.7959 12.9295 17.8375 12.9439C17.9034 12.9683 17.9521 12.9946 17.9608 12.9992C18.0124 13.0268 18.0713 13.0668 18.0371 13.0444C18.0365 13.044 18.0329 13.0417 18.0284 13.0388C17.9854 13.0113 17.9374 12.9849 17.8831 12.9601C17.7797 12.9128 17.6598 12.8741 17.5182 12.8421L17.0776 14.7929ZM18.2534 13.2368C18.3156 13.3115 18.3965 13.4318 18.4432 13.6012C18.4465 13.6133 18.4778 13.7193 18.4791 13.8576C18.4795 13.8993 18.4776 13.9705 18.4608 14.057C18.4458 14.1344 18.4061 14.2933 18.286 14.4573C18.1463 14.6481 17.915 14.8174 17.6111 14.8579C17.3446 14.8933 17.1388 14.8136 17.0382 14.7641C16.8526 14.6729 16.7453 14.5465 16.7259 14.5243C16.6867 14.4793 16.6597 14.4402 16.6461 14.4197C16.6178 14.377 16.599 14.3414 16.5906 14.325C16.5584 14.2624 16.5409 14.2115 16.5362 14.1979C16.5108 14.1239 16.5091 14.0859 16.516 14.1343L18.4959 13.8514C18.482 13.7542 18.4624 13.6494 18.4281 13.5493C18.4212 13.5292 18.4021 13.4743 18.3688 13.4098C18.3602 13.3929 18.3411 13.3569 18.3126 13.3139C18.299 13.2933 18.272 13.2541 18.2326 13.2091C18.2132 13.1868 18.1059 13.0603 17.9202 12.9691C17.8195 12.9196 17.6137 12.8399 17.3472 12.8753C17.0433 12.9158 16.812 13.0851 16.6723 13.2759C16.5522 13.4399 16.5124 13.5989 16.4974 13.6763C16.4806 13.7628 16.4788 13.834 16.4792 13.8758C16.4804 14.0143 16.5118 14.1205 16.5152 14.1329C16.5626 14.305 16.6472 14.4335 16.7169 14.5171L18.2534 13.2368ZM16.5156 14.1315C16.5154 14.1299 16.5172 14.1432 16.519 14.1779C16.5207 14.2111 16.522 14.2549 16.5226 14.3117C16.5239 14.4268 16.5221 14.5726 16.5187 14.7576C16.5122 15.121 16.5 15.6114 16.5 16.1982H18.5C18.5 15.6348 18.5116 15.1711 18.5184 14.7937C18.5245 14.4587 18.5307 14.0998 18.4963 13.8542L16.5156 14.1315ZM16.5 16.1982C16.5 16.4288 16.4653 17.0177 16.527 17.5695L18.5146 17.3473C18.4693 16.942 18.5 16.6155 18.5 16.1982H16.5ZM16.5277 17.5756C16.5915 18.1165 16.7877 19.1447 17.7764 19.7563L18.8285 18.0554C18.664 17.9536 18.563 17.7573 18.5139 17.3412L16.5277 17.5756ZM17.7745 19.7551C18.4346 20.1654 19.4553 20.2204 20.3455 19.7219L19.3683 17.9768C19.2308 18.0539 19.0969 18.0801 18.9873 18.0793C18.8652 18.0785 18.8128 18.0456 18.8304 18.0565L17.7745 19.7551ZM20.3422 19.7237C21.1593 19.2702 21.879 18.4646 22.6616 17.1914L20.9577 16.1442C20.2423 17.3081 19.7434 17.7687 19.3716 17.975L20.3422 19.7237ZM22.6609 17.1925C23.4827 15.8592 23.9561 14.1563 24.0029 13.9897L22.0773 13.4492C22.029 13.6214 21.6167 15.0749 20.9583 16.1431L22.6609 17.1925ZM23.0401 13.7194C23.3562 14.6681 23.3564 14.6681 23.3566 14.668C23.3567 14.668 23.3569 14.6679 23.357 14.6679C23.3572 14.6678 23.3575 14.6677 23.3577 14.6676C23.3582 14.6675 23.3587 14.6673 23.3592 14.6671C23.3603 14.6668 23.3613 14.6664 23.3623 14.6661C23.3644 14.6654 23.3665 14.6647 23.3686 14.6639C23.373 14.6624 23.3775 14.6608 23.3822 14.6591C23.3915 14.6557 23.4018 14.6518 23.4129 14.6474C23.4346 14.6387 23.4618 14.627 23.4925 14.6116C23.5425 14.5866 23.6522 14.5275 23.7621 14.4176L22.3478 13.0035C22.4518 12.8994 22.554 12.8448 22.5981 12.8228C22.6258 12.8089 22.6504 12.7983 22.6702 12.7904C22.6804 12.7863 22.6899 12.7827 22.6988 12.7795C22.7032 12.7779 22.7075 12.7763 22.7117 12.7749C22.7138 12.7741 22.7159 12.7734 22.7179 12.7727C22.7189 12.7724 22.7199 12.7721 22.7209 12.7717C22.7214 12.7716 22.7219 12.7714 22.7224 12.7712C22.7227 12.7711 22.7229 12.7711 22.7232 12.771C22.7233 12.7709 22.7235 12.7709 22.7235 12.7708C22.7237 12.7708 22.7239 12.7707 23.0401 13.7194ZM22.8588 14.6911C22.8446 14.6883 22.8156 14.6821 22.7791 14.6715C22.7602 14.666 22.7334 14.6575 22.7017 14.6454C22.6715 14.6338 22.6248 14.6142 22.5708 14.5838C22.5189 14.5546 22.4361 14.5021 22.3513 14.4166C22.2606 14.325 22.1653 14.193 22.1091 14.0173C22.0528 13.8412 22.0588 13.6919 22.0665 13.6143C22.0683 13.5967 22.0701 13.583 22.071 13.5767C22.0712 13.575 22.0714 13.5737 22.0715 13.5728C22.0716 13.5719 22.0717 13.5712 22.0717 13.5712C22.0719 13.5704 22.0715 13.5729 22.0711 13.5755C22.0704 13.5805 22.0682 13.5967 22.0662 13.6175C22.0642 13.6388 22.0616 13.6719 22.0616 13.7126C22.0616 13.7941 22.0714 13.9265 22.1302 14.0771C22.1597 14.1526 22.1988 14.2255 22.2475 14.2938C22.2959 14.3617 22.3493 14.4187 22.4031 14.4658C22.5081 14.5576 22.611 14.609 22.6792 14.6372C22.748 14.6657 22.8065 14.6809 22.8425 14.689C22.8802 14.6974 22.9115 14.7022 22.9318 14.7048C22.9529 14.7076 22.9705 14.7092 22.9826 14.7102C23.0058 14.7121 23.0241 14.7127 23.0321 14.713C23.048 14.7134 23.0613 14.7135 23.0629 14.7135C23.0667 14.7135 23.071 14.7135 23.0728 14.7135V12.7135C23.0694 12.7135 23.0696 12.7135 23.0704 12.7135C23.071 12.7135 23.0733 12.7135 23.0765 12.7135C23.0793 12.7136 23.0859 12.7137 23.0945 12.7139C23.1018 12.7142 23.1195 12.7148 23.1422 12.7166C23.1541 12.7175 23.1715 12.7191 23.1924 12.7219C23.2126 12.7245 23.2437 12.7292 23.2813 12.7377C23.3172 12.7458 23.3756 12.7609 23.4444 12.7894C23.5124 12.8176 23.6153 12.8689 23.7202 12.9607C23.774 13.0078 23.8274 13.0647 23.8758 13.1326C23.9245 13.2009 23.9636 13.2738 23.9931 13.3492C24.0519 13.4998 24.0617 13.6322 24.0616 13.7136C24.0616 13.7543 24.0591 13.7874 24.0571 13.8086C24.0551 13.8295 24.0528 13.8456 24.0521 13.8506C24.0518 13.8532 24.0514 13.8556 24.0515 13.8548C24.0515 13.8548 24.0516 13.8541 24.0518 13.8532C24.0519 13.8523 24.0521 13.851 24.0523 13.8493C24.0532 13.843 24.055 13.8292 24.0568 13.8116C24.0603 13.7758 24.0642 13.718 24.0595 13.6469C24.0546 13.574 24.0413 13.4931 24.0141 13.4082C23.987 13.3235 23.9498 13.246 23.9059 13.1768C23.8626 13.1086 23.8157 13.0529 23.7716 13.0084C23.6867 12.9228 23.6036 12.8701 23.5514 12.8407C23.497 12.8101 23.4498 12.7903 23.4189 12.7784C23.3866 12.766 23.359 12.7573 23.3392 12.7515C23.3007 12.7403 23.269 12.7335 23.2511 12.7299L22.8588 14.6911ZM23.0728 14.7135C23.2182 14.7135 23.8956 14.709 24.5927 14.7045C25.2956 14.7001 26.0208 14.6957 26.2738 14.6957V12.6957C26.0126 12.6957 25.2785 12.7001 24.58 12.7046C23.8757 12.7091 23.2097 12.7135 23.0728 12.7135V14.7135ZM26.2738 14.6957C26.3214 14.6957 26.3533 14.697 26.3869 14.6989C26.4172 14.7006 26.4841 14.7051 26.5543 14.7071L26.6114 12.7079C26.5776 12.707 26.5613 12.7056 26.4987 12.702C26.4395 12.6987 26.3688 12.6957 26.2738 12.6957V14.6957ZM25.6138 13.4609C25.5833 13.5806 25.5396 13.7244 25.4581 13.9153L27.2975 14.7005C27.4241 14.404 27.4992 14.1614 27.552 13.9542L25.6138 13.4609ZM25.4577 13.9163C25.2476 14.4098 24.8691 15.086 24.3051 15.8026L25.8767 17.0396C26.5431 16.1928 27.0146 15.3652 27.2979 14.6996L25.4577 13.9163ZM24.3023 15.8062C24.0454 16.1357 23.8155 16.4201 23.6078 16.6763C23.4027 16.9293 23.2119 17.1637 23.0457 17.3785L24.6275 18.6023C24.7764 18.41 24.9496 18.197 25.1614 17.9358C25.3705 17.6779 25.6103 17.3812 25.8795 17.036L24.3023 15.8062ZM23.0408 17.3849C22.7484 17.7692 22.3568 18.2573 22.1978 18.9706L24.1499 19.4058C24.1989 19.1858 24.3007 19.0319 24.6324 18.5959L23.0408 17.3849ZM22.1978 18.9706C22.0077 19.8233 22.3651 20.6496 22.7569 21.1372L24.3159 19.8844C24.2611 19.8162 24.2051 19.7157 24.1725 19.6085C24.1396 19.5004 24.144 19.4321 24.1499 19.4058L22.1978 18.9706ZM22.7542 21.1338C23.0912 21.5569 23.5111 21.9075 23.922 22.2691L25.2433 20.7676C24.7625 20.3446 24.5166 20.1364 24.3186 19.8878L22.7542 21.1338ZM23.9178 22.2654C25.5901 23.7535 25.7531 24.1081 25.6879 23.9939L27.4244 23.0016C27.3116 22.8042 26.9218 22.2613 25.2474 20.7713L23.9178 22.2654ZM25.7081 24.0278C25.7187 24.0447 25.7343 24.0689 25.7537 24.0958C25.7636 24.1096 25.7772 24.1279 25.7941 24.1485C25.81 24.168 25.8356 24.1979 25.8699 24.2316C25.8875 24.2489 25.9108 24.2705 25.9394 24.2939C25.9674 24.3167 26.0068 24.3464 26.0569 24.3765C26.1058 24.4059 26.1783 24.444 26.2719 24.4735C26.366 24.5032 26.4983 24.5295 26.6557 24.5166C26.7351 24.51 26.8177 24.4936 26.9008 24.4649C26.984 24.4361 27.0616 24.3969 27.1321 24.3494C27.2737 24.2542 27.3672 24.139 27.4266 24.0421C27.4847 23.9473 27.5165 23.8601 27.5344 23.7986C27.5527 23.7357 27.5617 23.6816 27.5666 23.6428C27.576 23.5678 27.5748 23.5079 27.5736 23.4782C27.5723 23.445 27.5696 23.4189 27.5683 23.4067C27.5675 23.3999 27.5669 23.3947 27.5666 23.3927C27.566 23.3878 27.5668 23.3939 27.5671 23.3963C27.5673 23.3983 27.5693 23.4148 27.571 23.4359C27.5719 23.4467 27.5733 23.4673 27.5739 23.4933C27.5742 23.5067 27.5743 23.5252 27.5736 23.5472C27.5729 23.5683 27.5712 23.6003 27.5663 23.6391C27.5619 23.6745 27.5521 23.7383 27.5279 23.815C27.5154 23.8548 27.4961 23.9073 27.4663 23.9662C27.4368 24.0245 27.391 24.1008 27.3211 24.1793C27.2498 24.2594 27.1493 24.3462 27.0144 24.4123C26.876 24.4802 26.7262 24.514 26.577 24.5145C26.4324 24.5149 26.3099 24.484 26.217 24.4485C26.1255 24.4135 26.0543 24.3709 26.0044 24.3363C25.9539 24.3013 25.9144 24.267 25.886 24.24C25.8571 24.2126 25.8339 24.1874 25.8165 24.1671C25.7825 24.1277 25.7581 24.0931 25.7434 24.0711C25.7146 24.0282 25.6955 23.9923 25.6872 23.9763C25.6696 23.9425 25.658 23.9152 25.6549 23.9081C25.6502 23.897 25.6467 23.8884 25.6452 23.8845C25.6434 23.8801 25.6421 23.8766 25.6415 23.875C25.6408 23.8732 25.6403 23.8719 25.6402 23.8715C25.64 23.871 25.6399 23.8708 25.6406 23.8727L27.5133 23.1704C27.5129 23.1694 27.5119 23.1668 27.511 23.1643C27.5104 23.1628 27.5076 23.1555 27.5042 23.1468C27.5025 23.1424 27.4988 23.1333 27.494 23.122C27.4907 23.1145 27.479 23.0869 27.4613 23.0529C27.4529 23.0369 27.4338 23.0009 27.405 22.9579C27.3902 22.9359 27.3658 22.9013 27.3319 22.8619C27.3144 22.8416 27.2912 22.8163 27.2623 22.7889C27.2339 22.762 27.1944 22.7277 27.1439 22.6926C27.094 22.658 27.0228 22.6154 26.9312 22.5804C26.8384 22.5449 26.7159 22.514 26.5712 22.5145C26.4221 22.5149 26.2723 22.5487 26.1339 22.6166C25.9989 22.6828 25.8984 22.7696 25.8271 22.8496C25.7573 22.9281 25.7115 23.0045 25.682 23.0627C25.6521 23.1216 25.6329 23.1742 25.6203 23.2139C25.5962 23.2907 25.5863 23.3545 25.5819 23.3899C25.577 23.4287 25.5753 23.4607 25.5746 23.4819C25.5739 23.5039 25.574 23.5225 25.5743 23.5359C25.5749 23.562 25.5764 23.5826 25.5772 23.5936C25.5789 23.6148 25.581 23.6316 25.5812 23.6339C25.5815 23.6366 25.5823 23.643 25.5818 23.6384C25.5816 23.6368 25.581 23.6319 25.5803 23.6256C25.579 23.6142 25.5764 23.5889 25.5751 23.5566C25.574 23.5278 25.5728 23.4686 25.5821 23.3944C25.5869 23.3559 25.5959 23.3022 25.6141 23.2397C25.6319 23.1785 25.6635 23.0915 25.7215 22.9969C25.7807 22.9003 25.8741 22.7853 26.0155 22.6902C26.1618 22.5917 26.3266 22.5369 26.4911 22.5233C26.6483 22.5104 26.7802 22.5367 26.874 22.5663C26.9672 22.5957 27.0393 22.6335 27.0878 22.6627C27.1374 22.6925 27.1763 22.7218 27.2038 22.7442C27.2318 22.7671 27.2545 22.7882 27.2715 22.8049C27.3044 22.8372 27.3285 22.8655 27.3426 22.8827C27.3576 22.9011 27.3691 22.9166 27.3767 22.9271C27.3914 22.9475 27.401 22.9627 27.4041 22.9678L25.7081 24.0278ZM26.2699 22.5699C26.2339 22.5815 26.1907 22.5947 26.1534 22.6058C26.1352 22.6112 26.1198 22.6157 26.1091 22.6188C26.1036 22.6203 26.1002 22.6213 26.0987 22.6217C26.0979 22.6219 26.0986 22.6217 26.1002 22.6213C26.101 22.6211 26.1027 22.6206 26.105 22.62C26.1069 22.6195 26.1114 22.6183 26.1174 22.6168L26.6025 24.5571C26.6475 24.5458 26.7859 24.5049 26.8839 24.4733L26.2699 22.5699ZM26.36 22.587H23.2749V24.587H26.36V22.587ZM23.2749 23.587C23.3064 22.5875 23.3067 22.5875 23.3069 22.5875C23.307 22.5875 23.3072 22.5875 23.3073 22.5875C23.3076 22.5875 23.3079 22.5875 23.3082 22.5875C23.3087 22.5875 23.3093 22.5875 23.3097 22.5876C23.3107 22.5876 23.3116 22.5876 23.3123 22.5877C23.3138 22.5877 23.3148 22.5878 23.3153 22.5878C23.3163 22.5878 23.3156 22.5878 23.3132 22.5877C23.3083 22.5873 23.2972 22.5866 23.2809 22.5849C23.2478 22.5815 23.1974 22.575 23.1388 22.5631C23.0076 22.5365 22.9008 22.4961 22.8401 22.4559L21.7361 24.1236C22.0975 24.3628 22.4841 24.471 22.7408 24.5231C22.876 24.5506 22.9933 24.566 23.0792 24.5747C23.1225 24.5791 23.1587 24.5819 23.1864 24.5836C23.2003 24.5845 23.2121 24.5851 23.2216 24.5856C23.2264 24.5858 23.2306 24.586 23.2342 24.5861C23.236 24.5862 23.2377 24.5863 23.2392 24.5863C23.24 24.5863 23.2407 24.5864 23.2414 24.5864C23.2417 24.5864 23.242 24.5864 23.2424 24.5864C23.2425 24.5864 23.2428 24.5864 23.2429 24.5864C23.2431 24.5865 23.2433 24.5865 23.2749 23.587ZM23.2881 23.2897V23.2868H21.2881V23.2897H23.2881ZM22.2881 22.2868H22.2852V24.2868H22.2881V22.2868ZM22.8347 22.4513C22.6652 22.3399 22.4591 22.1756 22.1979 21.959C21.952 21.755 21.6576 21.505 21.3637 21.2775L20.1394 22.8589C20.3982 23.0593 20.6493 23.273 20.9212 23.4985C21.178 23.7114 21.4622 23.9424 21.7356 24.1223L22.8347 22.4513ZM21.3637 21.2775C21.0732 21.0526 20.7161 20.7915 20.2796 20.5931L19.452 22.4138C19.6694 22.5127 19.877 22.6558 20.1394 22.8589L21.3637 21.2775ZM20.2758 20.5914C19.8381 20.3946 19.1621 20.2007 18.4093 20.4224L18.9744 22.3409C19.0895 22.307 19.2456 22.3211 19.4558 22.4156L20.2758 20.5914ZM18.4028 20.4243C17.3013 20.7568 16.7832 21.7513 16.6251 22.4167L18.571 22.8788C18.5981 22.7647 18.6573 22.629 18.7419 22.5197C18.8225 22.4155 18.9038 22.3622 18.9808 22.339L18.4028 20.4243ZM16.6246 22.4192C16.5126 22.8961 16.5292 23.3314 16.5268 23.574L18.5267 23.594C18.5302 23.2422 18.5231 23.083 18.5716 22.8763L16.6246 22.4192ZM17.3853 22.594C17.3723 22.5959 17.3534 22.5988 17.3313 22.6031C17.311 22.607 17.2745 22.6146 17.2302 22.6279C17.1821 22.6423 17.1144 22.6665 17.0387 22.7076C17.0034 22.7268 16.9764 22.7444 16.9752 22.7452C16.9729 22.7467 16.9846 22.7391 16.9984 22.7307C17.0144 22.7211 17.0384 22.7072 17.0684 22.6921C17.0991 22.6768 17.1321 22.6623 17.1674 22.6492C17.2023 22.6362 17.2353 22.6262 17.2656 22.6184C17.3238 22.6034 17.3718 22.5967 17.4001 22.5934C17.4288 22.5901 17.4516 22.5887 17.4633 22.5881C17.476 22.5875 17.4859 22.5873 17.4908 22.5871C17.4962 22.587 17.5002 22.587 17.5019 22.587C17.5039 22.587 17.5051 22.587 17.5051 22.587C17.5052 22.587 17.5049 22.587 17.5039 22.587C17.5029 22.587 17.5017 22.587 17.5 22.587V24.587C17.5028 24.587 17.507 24.587 17.5108 24.5869C17.5134 24.5869 17.523 24.5869 17.5343 24.5867C17.5403 24.5865 17.5511 24.5863 17.5644 24.5856C17.5768 24.585 17.6002 24.5836 17.6294 24.5802C17.6581 24.5769 17.7064 24.5701 17.765 24.555C17.8301 24.5382 17.8967 24.5141 17.9628 24.481C17.9929 24.466 18.017 24.452 18.0331 24.4423C18.0409 24.4376 18.0471 24.4336 18.0508 24.4313C18.0527 24.4301 18.0543 24.4291 18.0552 24.4286C18.0556 24.4283 18.056 24.428 18.0562 24.4279C18.0563 24.4278 18.0564 24.4277 18.0565 24.4277C18.0565 24.4277 18.0566 24.4276 18.0566 24.4276C18.0574 24.4271 18.0486 24.4328 18.0379 24.4394C18.026 24.4467 18.0111 24.4554 17.9937 24.4649C17.9185 24.5057 17.8516 24.5295 17.8049 24.5435C17.762 24.5564 17.7275 24.5635 17.7101 24.5669C17.691 24.5706 17.676 24.5728 17.6682 24.5739L17.3853 22.594ZM17.5 22.587H16.5192V24.587H17.5V22.587ZM16.5192 22.587C15.2434 22.587 13.8973 22.2236 12.3523 20.6098L10.9077 21.9929C12.8342 24.0052 14.704 24.587 16.5192 24.587V22.587ZM12.3524 20.6099C11.3006 19.511 10.0892 17.7486 9.0821 16.1281C8.07246 14.5034 7.33685 13.1336 7.21607 12.8577L5.38393 13.6598C5.56631 14.0764 6.36777 15.5494 7.38339 17.1837C8.40158 18.8222 9.70352 20.7348 10.9076 21.9928L12.3524 20.6099ZM6.28821 14.2587L9.78821 14.2999L9.81179 12.3001L6.31179 12.2588L6.28821 14.2587ZM22.7934 12.721C22.7713 12.7254 22.7185 12.7366 22.654 12.7594C22.6464 12.762 22.4021 12.836 22.2102 13.0721C22.0824 13.2295 21.9491 13.4987 21.9955 13.8384C22.0376 14.1462 22.2056 14.3403 22.2957 14.4264C22.4566 14.5801 22.6283 14.6373 22.6458 14.6436C22.7351 14.6761 22.8108 14.6884 22.8191 14.6898C22.8442 14.6942 22.865 14.697 22.8759 14.6983C22.8985 14.7012 22.9192 14.7031 22.9287 14.704C22.9366 14.7047 22.9542 14.7063 22.9555 14.7064L23.1366 12.7146C23.1032 12.7116 23.1138 12.7125 23.124 12.7138C23.129 12.7144 23.1446 12.7164 23.1654 12.72C23.1695 12.7208 23.242 12.7323 23.3292 12.764C23.3457 12.77 23.5167 12.8268 23.6772 12.9802C23.7671 13.0661 23.935 13.26 23.9771 13.5675C24.0235 13.907 23.8902 14.1761 23.7625 14.3333C23.6497 14.4722 23.5274 14.546 23.4722 14.5767C23.4079 14.6124 23.3527 14.6336 23.3208 14.6449C23.2574 14.6674 23.2059 14.6781 23.1857 14.6822L22.7934 12.721ZM22.3388 13.0035C22.3522 12.9901 22.3735 12.9696 22.401 12.9464C22.427 12.9245 22.4723 12.8885 22.5339 12.8518C22.5925 12.817 22.7 12.7608 22.8468 12.7312C22.9235 12.7157 23.0139 12.7068 23.1141 12.7138C23.2157 12.7208 23.3177 12.7435 23.4159 12.7828C23.6143 12.8621 23.7429 12.9863 23.8161 13.0751C23.8852 13.1589 23.9244 13.2349 23.9388 13.2638C23.9535 13.2931 23.9653 13.3211 23.9615 13.3123C23.9614 13.3121 23.9587 13.3059 23.9553 13.2983C23.9516 13.2903 23.946 13.278 23.9386 13.2633C23.9115 13.2091 23.8439 13.0843 23.7114 12.9655C23.6432 12.9043 23.5626 12.849 23.4699 12.8053C23.3775 12.7617 23.2844 12.735 23.1952 12.7213C23.0218 12.6946 22.879 12.719 22.7914 12.7417C22.7025 12.7647 22.6342 12.7954 22.5929 12.8161L23.4873 14.6049C23.4475 14.6249 23.3804 14.6551 23.2924 14.6779C23.2059 14.7003 23.0638 14.7246 22.891 14.698C22.8021 14.6844 22.7092 14.6578 22.6171 14.6143C22.5246 14.5707 22.4442 14.5155 22.3762 14.4545C22.244 14.336 22.1767 14.2116 22.1497 14.1577C22.1424 14.1431 22.1368 14.1309 22.1332 14.123C22.1298 14.1154 22.1272 14.1094 22.1271 14.1092C22.1234 14.1006 22.1352 14.1288 22.15 14.1583C22.1645 14.1873 22.2037 14.2634 22.2729 14.3474C22.3462 14.4362 22.4749 14.5605 22.6734 14.6399C22.8805 14.7227 23.0819 14.7241 23.2429 14.6916C23.3899 14.6619 23.4976 14.6056 23.5564 14.5707C23.6183 14.5339 23.6638 14.4977 23.69 14.4756C23.7179 14.4521 23.7394 14.4313 23.7532 14.4175L22.3388 13.0035ZM24.0401 13.7105C24.0401 13.1445 23.6205 12.8765 23.4719 12.8043C23.3152 12.7282 23.1765 12.7114 23.128 12.7062C23.0115 12.6937 22.9063 12.7017 22.8252 12.7152L23.1539 14.688C23.0906 14.6985 23.0107 14.705 22.915 14.6948C22.8769 14.6907 22.7475 14.676 22.5975 14.6031C22.4556 14.5341 22.0401 14.2705 22.0401 13.7105H24.0401Z" fill="#655D5D" mask="url(#path-1-inside-1_1_30)"/>
</svg>
