<svg width="35" height="35" viewBox="0 0 35 35" fill="none" xmlns="http://www.w3.org/2000/svg">
<path d="M15.9325 14.4524C15.9079 14.3957 15.881 14.3326 15.8525 14.2647C15.8432 14.266 15.834 14.2675 15.8248 14.2692C15.7234 14.358 15.6518 14.4829 15.6075 14.5894L15.9325 14.4524ZM15.9325 14.4524L15.6056 14.5942C15.5939 14.6225 15.5843 14.6494 15.5765 14.674C15.58 14.6821 15.5833 14.69 15.5865 14.6975C15.6211 14.7796 15.6415 14.8281 15.6613 14.8703L15.6635 14.8745C15.6641 14.8754 15.6648 14.8762 15.6654 14.8771L16.041 14.7037C16.0252 14.6681 15.9804 14.566 15.9325 14.4524ZM14.0418 12.5251C14.0398 12.5264 14.0377 12.5277 14.0357 12.5291C13.9782 12.5665 13.8774 12.65 13.831 12.8002C13.8164 12.8474 13.8097 12.8927 13.8087 12.9351C13.941 12.9359 14.0691 12.9382 14.1795 12.9437L14.0418 12.5251ZM14.0418 12.5251C14.0958 12.5264 14.1483 12.528 14.1992 12.5301" stroke="#655D5D"/>
<circle cx="17.5" cy="17.5" r="16.5" stroke="#655D5D" stroke-width="2"/>
</svg>
